<mxfile host="65bd71144e">
    <diagram name="Pagina-1" id="EkfTAN4hH_TVddPuiA1x">
        <mxGraphModel dx="3054" dy="1216" grid="1" gridSize="10" guides="1" tooltips="1" connect="1" arrows="1" fold="1" page="1" pageScale="1" pageWidth="827" pageHeight="1169" math="0" shadow="0">
            <root>
                <mxCell id="0"/>
                <mxCell id="1" parent="0"/>
                <mxCell id="Gjo6DUxktxaH3FMSYRhE-1" value="Personale medico" style="rounded=0;whiteSpace=wrap;html=1;" parent="1" vertex="1">
                    <mxGeometry x="41" y="600" width="120" height="60" as="geometry"/>
                </mxCell>
                <mxCell id="Gjo6DUxktxaH3FMSYRhE-5" value="Pazienti" style="rounded=0;whiteSpace=wrap;html=1;" parent="1" vertex="1">
                    <mxGeometry x="800" y="760" width="120" height="60" as="geometry"/>
                </mxCell>
                <mxCell id="Gjo6DUxktxaH3FMSYRhE-7" value="&lt;span style=&quot;white-space: nowrap;&quot;&gt;Accompagnatore&lt;/span&gt;" style="rounded=0;whiteSpace=wrap;html=1;" parent="1" vertex="1">
                    <mxGeometry x="800" y="1080" width="120" height="60" as="geometry"/>
                </mxCell>
                <mxCell id="Gjo6DUxktxaH3FMSYRhE-8" value="Reparti" style="rounded=0;whiteSpace=wrap;html=1;" parent="1" vertex="1">
                    <mxGeometry x="401" y="300" width="120" height="60" as="geometry"/>
                </mxCell>
                <mxCell id="Gjo6DUxktxaH3FMSYRhE-10" value="Camere" style="rounded=0;whiteSpace=wrap;html=1;" parent="1" vertex="1">
                    <mxGeometry x="1000" y="600" width="120" height="60" as="geometry"/>
                </mxCell>
                <mxCell id="Gjo6DUxktxaH3FMSYRhE-11" value="Sale operatorie" style="rounded=0;whiteSpace=wrap;html=1;" parent="1" vertex="1">
                    <mxGeometry x="40" y="1197.33" width="120" height="60" as="geometry"/>
                </mxCell>
                <mxCell id="Gjo6DUxktxaH3FMSYRhE-12" value="Operazioni" style="rounded=0;whiteSpace=wrap;html=1;" parent="1" vertex="1">
                    <mxGeometry x="39.5" y="921" width="120" height="60" as="geometry"/>
                </mxCell>
                <mxCell id="Gjo6DUxktxaH3FMSYRhE-15" value="Farmaci" style="rounded=0;whiteSpace=wrap;html=1;" parent="1" vertex="1">
                    <mxGeometry x="-145" y="920" width="120" height="60" as="geometry"/>
                </mxCell>
                <mxCell id="Gjo6DUxktxaH3FMSYRhE-16" value="Visiti prenotate" style="rounded=0;whiteSpace=wrap;html=1;" parent="1" vertex="1">
                    <mxGeometry x="201" y="920" width="120" height="60" as="geometry"/>
                </mxCell>
                <mxCell id="Gjo6DUxktxaH3FMSYRhE-17" value="Cartella clinica" style="rounded=0;whiteSpace=wrap;html=1;" parent="1" vertex="1">
                    <mxGeometry x="600" y="600" width="120" height="60" as="geometry"/>
                </mxCell>
                <mxCell id="Gjo6DUxktxaH3FMSYRhE-18" value="Riabilitazione" style="rounded=0;whiteSpace=wrap;html=1;" parent="1" vertex="1">
                    <mxGeometry x="800" y="440" width="120" height="60" as="geometry"/>
                </mxCell>
                <mxCell id="GProfhIi8R3kbPbWlugL-2" value="" style="endArrow=none;html=1;rounded=0;" parent="1" edge="1">
                    <mxGeometry width="50" height="50" relative="1" as="geometry">
                        <mxPoint x="106" y="700" as="sourcePoint"/>
                        <mxPoint x="105.91999999999999" y="700" as="targetPoint"/>
                    </mxGeometry>
                </mxCell>
                <mxCell id="GProfhIi8R3kbPbWlugL-11" value="lavora" style="shape=rhombus;perimeter=rhombusPerimeter;whiteSpace=wrap;html=1;align=center;" parent="1" vertex="1">
                    <mxGeometry x="41" y="300" width="120" height="60" as="geometry"/>
                </mxCell>
                <mxCell id="GProfhIi8R3kbPbWlugL-13" value="operano" style="shape=rhombus;perimeter=rhombusPerimeter;whiteSpace=wrap;html=1;align=center;" parent="1" vertex="1">
                    <mxGeometry x="40" y="760" width="120" height="60" as="geometry"/>
                </mxCell>
                <mxCell id="GProfhIi8R3kbPbWlugL-14" value="somministrano" style="shape=rhombus;perimeter=rhombusPerimeter;whiteSpace=wrap;html=1;align=center;" parent="1" vertex="1">
                    <mxGeometry x="-140" y="760" width="120" height="60" as="geometry"/>
                </mxCell>
                <mxCell id="GProfhIi8R3kbPbWlugL-15" value="partecipano" style="shape=rhombus;perimeter=rhombusPerimeter;whiteSpace=wrap;html=1;align=center;" parent="1" vertex="1">
                    <mxGeometry x="800" y="600" width="120" height="60" as="geometry"/>
                </mxCell>
                <mxCell id="GProfhIi8R3kbPbWlugL-16" value="fatte" style="shape=rhombus;perimeter=rhombusPerimeter;whiteSpace=wrap;html=1;align=center;" parent="1" vertex="1">
                    <mxGeometry x="39.5" y="1060" width="120" height="60" as="geometry"/>
                </mxCell>
                <mxCell id="GProfhIi8R3kbPbWlugL-17" value="fanno" style="shape=rhombus;perimeter=rhombusPerimeter;whiteSpace=wrap;html=1;align=center;" parent="1" vertex="1">
                    <mxGeometry x="201" y="760" width="120" height="60" as="geometry"/>
                </mxCell>
                <mxCell id="GProfhIi8R3kbPbWlugL-19" value="scritta/letta" style="shape=rhombus;perimeter=rhombusPerimeter;whiteSpace=wrap;html=1;align=center;" parent="1" vertex="1">
                    <mxGeometry x="400" y="600" width="120" height="60" as="geometry"/>
                </mxCell>
                <mxCell id="GProfhIi8R3kbPbWlugL-20" value="posto" style="shape=rhombus;perimeter=rhombusPerimeter;whiteSpace=wrap;html=1;align=center;" parent="1" vertex="1">
                    <mxGeometry x="1000" y="760" width="120" height="60" as="geometry"/>
                </mxCell>
                <mxCell id="GProfhIi8R3kbPbWlugL-22" value="utilizzano" style="shape=rhombus;perimeter=rhombusPerimeter;whiteSpace=wrap;html=1;align=center;" parent="1" vertex="1">
                    <mxGeometry x="41" y="440" width="120" height="60" as="geometry"/>
                </mxCell>
                <mxCell id="GProfhIi8R3kbPbWlugL-32" value="hanno" style="shape=rhombus;perimeter=rhombusPerimeter;whiteSpace=wrap;html=1;align=center;" parent="1" vertex="1">
                    <mxGeometry x="600" y="760" width="120" height="60" as="geometry"/>
                </mxCell>
                <mxCell id="GProfhIi8R3kbPbWlugL-53" value="situato" style="shape=rhombus;perimeter=rhombusPerimeter;whiteSpace=wrap;html=1;align=center;" parent="1" vertex="1">
                    <mxGeometry x="1000" y="440" width="120" height="60" as="geometry"/>
                </mxCell>
                <mxCell id="GProfhIi8R3kbPbWlugL-54" value="situato" style="shape=rhombus;perimeter=rhombusPerimeter;whiteSpace=wrap;html=1;align=center;" parent="1" vertex="1">
                    <mxGeometry x="600" y="440" width="120" height="60" as="geometry"/>
                </mxCell>
                <mxCell id="GProfhIi8R3kbPbWlugL-62" value="sottoposte" style="shape=rhombus;perimeter=rhombusPerimeter;whiteSpace=wrap;html=1;align=center;" parent="1" vertex="1">
                    <mxGeometry x="201" y="1080" width="120" height="60" as="geometry"/>
                </mxCell>
                <mxCell id="EqLmaS4XHGkuEMbsUwe7-21" value="" style="endArrow=none;html=1;rounded=0;entryX=0;entryY=0.5;entryDx=0;entryDy=0;exitX=1;exitY=0.5;exitDx=0;exitDy=0;" parent="1" source="GProfhIi8R3kbPbWlugL-11" target="Gjo6DUxktxaH3FMSYRhE-8" edge="1">
                    <mxGeometry width="50" height="50" relative="1" as="geometry">
                        <mxPoint x="280" y="330" as="sourcePoint"/>
                        <mxPoint x="330" y="280" as="targetPoint"/>
                    </mxGeometry>
                </mxCell>
                <mxCell id="EqLmaS4XHGkuEMbsUwe7-23" value="" style="endArrow=none;html=1;rounded=0;startArrow=none;" parent="1" source="GProfhIi8R3kbPbWlugL-12" edge="1">
                    <mxGeometry width="50" height="50" relative="1" as="geometry">
                        <mxPoint x="380" y="470" as="sourcePoint"/>
                        <mxPoint x="520" y="470" as="targetPoint"/>
                    </mxGeometry>
                </mxCell>
                <mxCell id="EqLmaS4XHGkuEMbsUwe7-25" value="" style="endArrow=none;html=1;rounded=0;" parent="1" edge="1">
                    <mxGeometry width="50" height="50" relative="1" as="geometry">
                        <mxPoint x="660" y="440" as="sourcePoint"/>
                        <mxPoint x="660" y="340" as="targetPoint"/>
                    </mxGeometry>
                </mxCell>
                <mxCell id="EqLmaS4XHGkuEMbsUwe7-27" value="" style="endArrow=none;html=1;rounded=0;entryX=0;entryY=0.5;entryDx=0;entryDy=0;" parent="1" target="Gjo6DUxktxaH3FMSYRhE-18" edge="1">
                    <mxGeometry width="50" height="50" relative="1" as="geometry">
                        <mxPoint x="720" y="470" as="sourcePoint"/>
                        <mxPoint x="770" y="420" as="targetPoint"/>
                    </mxGeometry>
                </mxCell>
                <mxCell id="EqLmaS4XHGkuEMbsUwe7-28" value="" style="endArrow=none;html=1;rounded=0;exitX=0.992;exitY=0.667;exitDx=0;exitDy=0;exitPerimeter=0;" parent="1" source="Gjo6DUxktxaH3FMSYRhE-8" edge="1">
                    <mxGeometry width="50" height="50" relative="1" as="geometry">
                        <mxPoint x="560" y="340" as="sourcePoint"/>
                        <mxPoint x="660" y="340" as="targetPoint"/>
                    </mxGeometry>
                </mxCell>
                <mxCell id="EqLmaS4XHGkuEMbsUwe7-29" value="" style="endArrow=none;html=1;rounded=0;exitX=0.998;exitY=0.319;exitDx=0;exitDy=0;exitPerimeter=0;" parent="1" source="Gjo6DUxktxaH3FMSYRhE-8" edge="1">
                    <mxGeometry width="50" height="50" relative="1" as="geometry">
                        <mxPoint x="560" y="320" as="sourcePoint"/>
                        <mxPoint x="1060" y="320" as="targetPoint"/>
                    </mxGeometry>
                </mxCell>
                <mxCell id="EqLmaS4XHGkuEMbsUwe7-30" value="" style="endArrow=none;html=1;rounded=0;" parent="1" edge="1">
                    <mxGeometry width="50" height="50" relative="1" as="geometry">
                        <mxPoint x="1060" y="440" as="sourcePoint"/>
                        <mxPoint x="1060" y="320" as="targetPoint"/>
                    </mxGeometry>
                </mxCell>
                <mxCell id="EqLmaS4XHGkuEMbsUwe7-31" value="" style="endArrow=none;html=1;rounded=0;exitX=0.5;exitY=0;exitDx=0;exitDy=0;" parent="1" source="Gjo6DUxktxaH3FMSYRhE-10" edge="1">
                    <mxGeometry width="50" height="50" relative="1" as="geometry">
                        <mxPoint x="1010" y="550" as="sourcePoint"/>
                        <mxPoint x="1060" y="500" as="targetPoint"/>
                    </mxGeometry>
                </mxCell>
                <mxCell id="EqLmaS4XHGkuEMbsUwe7-32" value="" style="endArrow=none;html=1;rounded=0;entryX=0;entryY=0.5;entryDx=0;entryDy=0;" parent="1" target="GProfhIi8R3kbPbWlugL-20" edge="1">
                    <mxGeometry width="50" height="50" relative="1" as="geometry">
                        <mxPoint x="920" y="790" as="sourcePoint"/>
                        <mxPoint x="970" y="740" as="targetPoint"/>
                    </mxGeometry>
                </mxCell>
                <mxCell id="EqLmaS4XHGkuEMbsUwe7-33" value="" style="endArrow=none;html=1;rounded=0;entryX=0.5;entryY=1;entryDx=0;entryDy=0;" parent="1" target="Gjo6DUxktxaH3FMSYRhE-10" edge="1">
                    <mxGeometry width="50" height="50" relative="1" as="geometry">
                        <mxPoint x="1060" y="760" as="sourcePoint"/>
                        <mxPoint x="1110" y="710" as="targetPoint"/>
                    </mxGeometry>
                </mxCell>
                <mxCell id="EqLmaS4XHGkuEMbsUwe7-34" value="" style="endArrow=none;html=1;rounded=0;entryX=0.5;entryY=1;entryDx=0;entryDy=0;" parent="1" target="GProfhIi8R3kbPbWlugL-15" edge="1">
                    <mxGeometry width="50" height="50" relative="1" as="geometry">
                        <mxPoint x="860" y="760" as="sourcePoint"/>
                        <mxPoint x="910" y="710" as="targetPoint"/>
                    </mxGeometry>
                </mxCell>
                <mxCell id="EqLmaS4XHGkuEMbsUwe7-35" value="" style="endArrow=none;html=1;rounded=0;entryX=0.5;entryY=1;entryDx=0;entryDy=0;" parent="1" target="Gjo6DUxktxaH3FMSYRhE-18" edge="1">
                    <mxGeometry width="50" height="50" relative="1" as="geometry">
                        <mxPoint x="860" y="600" as="sourcePoint"/>
                        <mxPoint x="910" y="550" as="targetPoint"/>
                    </mxGeometry>
                </mxCell>
                <mxCell id="EqLmaS4XHGkuEMbsUwe7-37" value="" style="endArrow=none;html=1;rounded=0;entryX=0;entryY=0.5;entryDx=0;entryDy=0;" parent="1" target="Gjo6DUxktxaH3FMSYRhE-17" edge="1">
                    <mxGeometry width="50" height="50" relative="1" as="geometry">
                        <mxPoint x="520" y="630" as="sourcePoint"/>
                        <mxPoint x="570" y="580" as="targetPoint"/>
                    </mxGeometry>
                </mxCell>
                <mxCell id="EqLmaS4XHGkuEMbsUwe7-38" value="" style="endArrow=none;html=1;rounded=0;entryX=0.5;entryY=1;entryDx=0;entryDy=0;exitX=0.5;exitY=0;exitDx=0;exitDy=0;" parent="1" source="GProfhIi8R3kbPbWlugL-32" target="Gjo6DUxktxaH3FMSYRhE-17" edge="1">
                    <mxGeometry width="50" height="50" relative="1" as="geometry">
                        <mxPoint x="660" y="750" as="sourcePoint"/>
                        <mxPoint x="710" y="710" as="targetPoint"/>
                    </mxGeometry>
                </mxCell>
                <mxCell id="EqLmaS4XHGkuEMbsUwe7-46" value="" style="endArrow=none;html=1;rounded=0;entryX=1;entryY=0.5;entryDx=0;entryDy=0;" parent="1" edge="1">
                    <mxGeometry width="50" height="50" relative="1" as="geometry">
                        <mxPoint x="700" y="800" as="sourcePoint"/>
                        <mxPoint x="760" y="770" as="targetPoint"/>
                    </mxGeometry>
                </mxCell>
                <mxCell id="EqLmaS4XHGkuEMbsUwe7-47" value="" style="endArrow=none;html=1;rounded=0;" parent="1" edge="1">
                    <mxGeometry width="50" height="50" relative="1" as="geometry">
                        <mxPoint x="700" y="850" as="sourcePoint"/>
                        <mxPoint x="780" y="810" as="targetPoint"/>
                    </mxGeometry>
                </mxCell>
                <mxCell id="EqLmaS4XHGkuEMbsUwe7-48" value="" style="endArrow=none;html=1;rounded=0;" parent="1" edge="1">
                    <mxGeometry width="50" height="50" relative="1" as="geometry">
                        <mxPoint x="700" y="960" as="sourcePoint"/>
                        <mxPoint x="700" y="850" as="targetPoint"/>
                    </mxGeometry>
                </mxCell>
                <mxCell id="EqLmaS4XHGkuEMbsUwe7-49" value="" style="endArrow=none;html=1;rounded=0;" parent="1" edge="1">
                    <mxGeometry width="50" height="50" relative="1" as="geometry">
                        <mxPoint x="670" y="949.25" as="sourcePoint"/>
                        <mxPoint x="670" y="840" as="targetPoint"/>
                    </mxGeometry>
                </mxCell>
                <mxCell id="EqLmaS4XHGkuEMbsUwe7-51" value="" style="endArrow=none;html=1;rounded=0;exitX=1;exitY=0.5;exitDx=0;exitDy=0;startArrow=none;" parent="1" source="18" edge="1">
                    <mxGeometry width="50" height="50" relative="1" as="geometry">
                        <mxPoint x="560" y="950" as="sourcePoint"/>
                        <mxPoint x="670" y="950" as="targetPoint"/>
                    </mxGeometry>
                </mxCell>
                <mxCell id="EqLmaS4XHGkuEMbsUwe7-61" value="" style="endArrow=none;html=1;rounded=0;entryX=0.5;entryY=1;entryDx=0;entryDy=0;" parent="1" target="GProfhIi8R3kbPbWlugL-17" edge="1">
                    <mxGeometry width="50" height="50" relative="1" as="geometry">
                        <mxPoint x="261" y="920" as="sourcePoint"/>
                        <mxPoint x="311" y="870" as="targetPoint"/>
                    </mxGeometry>
                </mxCell>
                <mxCell id="EqLmaS4XHGkuEMbsUwe7-63" value="" style="endArrow=none;html=1;rounded=0;entryX=0.5;entryY=1;entryDx=0;entryDy=0;" parent="1" target="GProfhIi8R3kbPbWlugL-13" edge="1">
                    <mxGeometry width="50" height="50" relative="1" as="geometry">
                        <mxPoint x="100" y="920" as="sourcePoint"/>
                        <mxPoint x="150" y="870" as="targetPoint"/>
                    </mxGeometry>
                </mxCell>
                <mxCell id="EqLmaS4XHGkuEMbsUwe7-65" value="" style="endArrow=none;html=1;rounded=0;exitX=0.5;exitY=0;exitDx=0;exitDy=0;" parent="1" source="Gjo6DUxktxaH3FMSYRhE-15" edge="1">
                    <mxGeometry width="50" height="50" relative="1" as="geometry">
                        <mxPoint x="-135" y="870" as="sourcePoint"/>
                        <mxPoint x="-85" y="820" as="targetPoint"/>
                    </mxGeometry>
                </mxCell>
                <mxCell id="EqLmaS4XHGkuEMbsUwe7-67" value="" style="endArrow=none;html=1;rounded=0;exitX=0.5;exitY=0;exitDx=0;exitDy=0;" parent="1" source="GProfhIi8R3kbPbWlugL-16" edge="1">
                    <mxGeometry width="50" height="50" relative="1" as="geometry">
                        <mxPoint x="50" y="1030" as="sourcePoint"/>
                        <mxPoint x="100" y="980" as="targetPoint"/>
                    </mxGeometry>
                </mxCell>
                <mxCell id="EqLmaS4XHGkuEMbsUwe7-68" value="" style="endArrow=none;html=1;rounded=0;" parent="1" edge="1">
                    <mxGeometry width="50" height="50" relative="1" as="geometry">
                        <mxPoint x="920" y="810" as="sourcePoint"/>
                        <mxPoint x="990" y="810" as="targetPoint"/>
                    </mxGeometry>
                </mxCell>
                <mxCell id="EqLmaS4XHGkuEMbsUwe7-69" value="" style="endArrow=none;html=1;rounded=0;" parent="1" edge="1">
                    <mxGeometry width="50" height="50" relative="1" as="geometry">
                        <mxPoint x="990" y="810" as="sourcePoint"/>
                        <mxPoint x="1060" y="840" as="targetPoint"/>
                    </mxGeometry>
                </mxCell>
                <mxCell id="EqLmaS4XHGkuEMbsUwe7-70" value="" style="endArrow=none;html=1;rounded=0;" parent="1" edge="1">
                    <mxGeometry width="50" height="50" relative="1" as="geometry">
                        <mxPoint x="1060" y="1310" as="sourcePoint"/>
                        <mxPoint x="1060" y="840" as="targetPoint"/>
                    </mxGeometry>
                </mxCell>
                <mxCell id="EqLmaS4XHGkuEMbsUwe7-75" value="nome" style="text;html=1;align=center;verticalAlign=middle;resizable=0;points=[];autosize=1;strokeColor=none;fillColor=none;" parent="1" vertex="1">
                    <mxGeometry x="-27" y="562" width="50" height="30" as="geometry"/>
                </mxCell>
                <mxCell id="EqLmaS4XHGkuEMbsUwe7-76" value="cognome" style="text;html=1;align=center;verticalAlign=middle;resizable=0;points=[];autosize=1;strokeColor=none;fillColor=none;" parent="1" vertex="1">
                    <mxGeometry x="26" y="538" width="70" height="30" as="geometry"/>
                </mxCell>
                <mxCell id="EqLmaS4XHGkuEMbsUwe7-77" value="id camera" style="text;html=1;align=center;verticalAlign=middle;resizable=0;points=[];autosize=1;strokeColor=none;fillColor=none;" parent="1" vertex="1">
                    <mxGeometry x="1065" y="540" width="80" height="30" as="geometry"/>
                </mxCell>
                <mxCell id="EqLmaS4XHGkuEMbsUwe7-78" value="num letti" style="text;html=1;align=center;verticalAlign=middle;resizable=0;points=[];autosize=1;strokeColor=none;fillColor=none;" parent="1" vertex="1">
                    <mxGeometry x="1065" y="696" width="70" height="30" as="geometry"/>
                </mxCell>
                <mxCell id="EqLmaS4XHGkuEMbsUwe7-79" value="nome" style="text;html=1;align=center;verticalAlign=middle;resizable=0;points=[];autosize=1;strokeColor=none;fillColor=none;" parent="1" vertex="1">
                    <mxGeometry x="760" y="708" width="50" height="30" as="geometry"/>
                </mxCell>
                <mxCell id="EqLmaS4XHGkuEMbsUwe7-80" value="cognome" style="text;html=1;align=center;verticalAlign=middle;resizable=0;points=[];autosize=1;strokeColor=none;fillColor=none;" parent="1" vertex="1">
                    <mxGeometry x="799" y="696" width="70" height="30" as="geometry"/>
                </mxCell>
                <mxCell id="EqLmaS4XHGkuEMbsUwe7-81" value="data&amp;nbsp;&lt;div&gt;nascita&lt;/div&gt;" style="text;html=1;align=center;verticalAlign=middle;resizable=0;points=[];autosize=1;strokeColor=none;fillColor=none;" parent="1" vertex="1">
                    <mxGeometry x="895" y="680" width="60" height="40" as="geometry"/>
                </mxCell>
                <mxCell id="EqLmaS4XHGkuEMbsUwe7-82" value="comune&amp;nbsp;&lt;div&gt;nascita&lt;/div&gt;" style="text;html=1;align=center;verticalAlign=middle;resizable=0;points=[];autosize=1;strokeColor=none;fillColor=none;" parent="1" vertex="1">
                    <mxGeometry x="945" y="726" width="70" height="40" as="geometry"/>
                </mxCell>
                <mxCell id="EqLmaS4XHGkuEMbsUwe7-83" value="sesso" style="text;html=1;align=center;verticalAlign=middle;resizable=0;points=[];autosize=1;strokeColor=none;fillColor=none;" parent="1" vertex="1">
                    <mxGeometry x="720" y="730" width="50" height="30" as="geometry"/>
                </mxCell>
                <mxCell id="EqLmaS4XHGkuEMbsUwe7-87" value="c.f." style="text;html=1;align=center;verticalAlign=middle;resizable=0;points=[];autosize=1;strokeColor=none;fillColor=none;" parent="1" vertex="1">
                    <mxGeometry x="855" y="708" width="40" height="30" as="geometry"/>
                </mxCell>
                <mxCell id="EqLmaS4XHGkuEMbsUwe7-88" value="id operazione" style="text;html=1;align=center;verticalAlign=middle;resizable=0;points=[];autosize=1;strokeColor=none;fillColor=none;" parent="1" vertex="1">
                    <mxGeometry x="7" y="999" width="100" height="30" as="geometry"/>
                </mxCell>
                <mxCell id="EqLmaS4XHGkuEMbsUwe7-89" value="badge&amp;nbsp;&lt;div&gt;chilurgo&lt;/div&gt;" style="text;html=1;align=center;verticalAlign=middle;resizable=0;points=[];autosize=1;strokeColor=none;fillColor=none;" parent="1" vertex="1">
                    <mxGeometry x="26" y="864" width="70" height="40" as="geometry"/>
                </mxCell>
                <mxCell id="EqLmaS4XHGkuEMbsUwe7-90" value="data" style="text;html=1;align=center;verticalAlign=middle;resizable=0;points=[];autosize=1;strokeColor=none;fillColor=none;" parent="1" vertex="1">
                    <mxGeometry x="111" y="860" width="50" height="30" as="geometry"/>
                </mxCell>
                <mxCell id="EqLmaS4XHGkuEMbsUwe7-91" value="esito" style="text;html=1;align=center;verticalAlign=middle;resizable=0;points=[];autosize=1;strokeColor=none;fillColor=none;" parent="1" vertex="1">
                    <mxGeometry x="115" y="1015" width="50" height="30" as="geometry"/>
                </mxCell>
                <mxCell id="EqLmaS4XHGkuEMbsUwe7-92" value="nome" style="text;html=1;align=center;verticalAlign=middle;resizable=0;points=[];autosize=1;strokeColor=none;fillColor=none;" parent="1" vertex="1">
                    <mxGeometry x="-77" y="861" width="50" height="30" as="geometry"/>
                </mxCell>
                <mxCell id="EqLmaS4XHGkuEMbsUwe7-93" value="effetti" style="text;html=1;align=center;verticalAlign=middle;resizable=0;points=[];autosize=1;strokeColor=none;fillColor=none;" parent="1" vertex="1">
                    <mxGeometry x="-145" y="1000" width="50" height="30" as="geometry"/>
                </mxCell>
                <mxCell id="EqLmaS4XHGkuEMbsUwe7-94" value="controindicazioni" style="text;html=1;align=center;verticalAlign=middle;resizable=0;points=[];autosize=1;strokeColor=none;fillColor=none;" parent="1" vertex="1">
                    <mxGeometry x="-87" y="1011" width="110" height="30" as="geometry"/>
                </mxCell>
                <mxCell id="EqLmaS4XHGkuEMbsUwe7-95" value="dosaggio" style="text;html=1;align=center;verticalAlign=middle;resizable=0;points=[];autosize=1;strokeColor=none;fillColor=none;" parent="1" vertex="1">
                    <mxGeometry x="-155" y="860" width="70" height="30" as="geometry"/>
                </mxCell>
                <mxCell id="EqLmaS4XHGkuEMbsUwe7-96" value="primario" style="text;html=1;align=center;verticalAlign=middle;resizable=0;points=[];autosize=1;strokeColor=none;fillColor=none;" parent="1" vertex="1">
                    <mxGeometry x="141" y="546" width="70" height="30" as="geometry"/>
                </mxCell>
                <mxCell id="EqLmaS4XHGkuEMbsUwe7-97" value="salario" style="text;html=1;align=center;verticalAlign=middle;resizable=0;points=[];autosize=1;strokeColor=none;fillColor=none;" parent="1" vertex="1">
                    <mxGeometry x="100" y="550.06" width="60" height="30" as="geometry"/>
                </mxCell>
                <mxCell id="EqLmaS4XHGkuEMbsUwe7-98" value="nome&lt;div&gt;attrezzatura&lt;/div&gt;" style="text;html=1;align=center;verticalAlign=middle;resizable=0;points=[];autosize=1;strokeColor=none;fillColor=none;" parent="1" vertex="1">
                    <mxGeometry x="275" y="377" width="90" height="40" as="geometry"/>
                </mxCell>
                <mxCell id="EqLmaS4XHGkuEMbsUwe7-99" value="pericolosità" style="text;html=1;align=center;verticalAlign=middle;resizable=0;points=[];autosize=1;strokeColor=none;fillColor=none;" parent="1" vertex="1">
                    <mxGeometry x="182" y="387" width="80" height="30" as="geometry"/>
                </mxCell>
                <mxCell id="EqLmaS4XHGkuEMbsUwe7-102" value="piano" style="text;html=1;align=center;verticalAlign=middle;resizable=0;points=[];autosize=1;strokeColor=none;fillColor=none;" parent="1" vertex="1">
                    <mxGeometry x="431" y="249" width="50" height="30" as="geometry"/>
                </mxCell>
                <mxCell id="EqLmaS4XHGkuEMbsUwe7-103" value="id.programma" style="text;html=1;align=center;verticalAlign=middle;resizable=0;points=[];autosize=1;strokeColor=none;fillColor=none;" parent="1" vertex="1">
                    <mxGeometry x="685" y="400" width="100" height="30" as="geometry"/>
                </mxCell>
                <mxCell id="EqLmaS4XHGkuEMbsUwe7-105" value="frequenza" style="text;html=1;align=center;verticalAlign=middle;resizable=0;points=[];autosize=1;strokeColor=none;fillColor=none;" parent="1" vertex="1">
                    <mxGeometry x="880" y="386" width="80" height="30" as="geometry"/>
                </mxCell>
                <mxCell id="EqLmaS4XHGkuEMbsUwe7-106" value="ambito" style="text;html=1;align=center;verticalAlign=middle;resizable=0;points=[];autosize=1;strokeColor=none;fillColor=none;" parent="1" vertex="1">
                    <mxGeometry x="820" y="386" width="60" height="30" as="geometry"/>
                </mxCell>
                <mxCell id="EqLmaS4XHGkuEMbsUwe7-107" value="id. cartella" style="text;html=1;align=center;verticalAlign=middle;resizable=0;points=[];autosize=1;strokeColor=none;fillColor=none;" parent="1" vertex="1">
                    <mxGeometry x="495" y="570" width="80" height="30" as="geometry"/>
                </mxCell>
                <mxCell id="EqLmaS4XHGkuEMbsUwe7-108" value="allergie" style="text;html=1;align=center;verticalAlign=middle;resizable=0;points=[];autosize=1;strokeColor=none;fillColor=none;" parent="1" vertex="1">
                    <mxGeometry x="580" y="540" width="60" height="30" as="geometry"/>
                </mxCell>
                <mxCell id="EqLmaS4XHGkuEMbsUwe7-109" value="patologie" style="text;html=1;align=center;verticalAlign=middle;resizable=0;points=[];autosize=1;strokeColor=none;fillColor=none;" parent="1" vertex="1">
                    <mxGeometry x="660" y="678" width="70" height="30" as="geometry"/>
                </mxCell>
                <mxCell id="EqLmaS4XHGkuEMbsUwe7-110" value="paziente&lt;div&gt;debole&lt;/div&gt;" style="text;html=1;align=center;verticalAlign=middle;resizable=0;points=[];autosize=1;strokeColor=none;fillColor=none;" parent="1" vertex="1">
                    <mxGeometry x="655" y="535" width="70" height="40" as="geometry"/>
                </mxCell>
                <mxCell id="EqLmaS4XHGkuEMbsUwe7-111" value="gruppo&lt;div&gt;&amp;nbsp;sanguigno&amp;nbsp;&lt;/div&gt;" style="text;html=1;align=center;verticalAlign=middle;resizable=0;points=[];autosize=1;strokeColor=none;fillColor=none;" parent="1" vertex="1">
                    <mxGeometry x="720" y="560" width="90" height="40" as="geometry"/>
                </mxCell>
                <mxCell id="EqLmaS4XHGkuEMbsUwe7-112" value="data" style="text;html=1;align=center;verticalAlign=middle;resizable=0;points=[];autosize=1;strokeColor=none;fillColor=none;" parent="1" vertex="1">
                    <mxGeometry x="196" y="885" width="50" height="30" as="geometry"/>
                </mxCell>
                <mxCell id="EqLmaS4XHGkuEMbsUwe7-113" value="priorita" style="text;html=1;align=center;verticalAlign=middle;resizable=0;points=[];autosize=1;strokeColor=none;fillColor=none;" parent="1" vertex="1">
                    <mxGeometry x="222" y="1005" width="60" height="30" as="geometry"/>
                </mxCell>
                <mxCell id="EqLmaS4XHGkuEMbsUwe7-114" value="id sala" style="text;html=1;align=center;verticalAlign=middle;resizable=0;points=[];autosize=1;strokeColor=none;fillColor=none;" parent="1" vertex="1">
                    <mxGeometry x="116" y="1146.33" width="60" height="30" as="geometry"/>
                </mxCell>
                <mxCell id="EqLmaS4XHGkuEMbsUwe7-115" value="livello&lt;div&gt;&amp;nbsp;attrezzatura&lt;/div&gt;" style="text;html=1;align=center;verticalAlign=middle;resizable=0;points=[];autosize=1;strokeColor=none;fillColor=none;" parent="1" vertex="1">
                    <mxGeometry x="17" y="1272.33" width="90" height="40" as="geometry"/>
                </mxCell>
                <mxCell id="EqLmaS4XHGkuEMbsUwe7-116" value="max&amp;nbsp;&lt;div&gt;persone&lt;/div&gt;" style="text;html=1;align=center;verticalAlign=middle;resizable=0;points=[];autosize=1;strokeColor=none;fillColor=none;" parent="1" vertex="1">
                    <mxGeometry x="27" y="1130.33" width="70" height="40" as="geometry"/>
                </mxCell>
                <mxCell id="EqLmaS4XHGkuEMbsUwe7-117" value="data nascita" style="text;html=1;align=center;verticalAlign=middle;resizable=0;points=[];autosize=1;strokeColor=none;fillColor=none;" parent="1" vertex="1">
                    <mxGeometry x="184" y="666" width="90" height="30" as="geometry"/>
                </mxCell>
                <mxCell id="EqLmaS4XHGkuEMbsUwe7-119" value="" style="ellipse;whiteSpace=wrap;html=1;aspect=fixed;" parent="1" vertex="1">
                    <mxGeometry x="16" y="582" width="10" height="10" as="geometry"/>
                </mxCell>
                <mxCell id="EqLmaS4XHGkuEMbsUwe7-120" value="" style="ellipse;whiteSpace=wrap;html=1;aspect=fixed;" parent="1" vertex="1">
                    <mxGeometry x="56" y="562" width="10" height="10" as="geometry"/>
                </mxCell>
                <mxCell id="EqLmaS4XHGkuEMbsUwe7-123" value="" style="ellipse;whiteSpace=wrap;html=1;aspect=fixed;" parent="1" vertex="1">
                    <mxGeometry x="125" y="572.06" width="10" height="10" as="geometry"/>
                </mxCell>
                <mxCell id="EqLmaS4XHGkuEMbsUwe7-124" value="" style="ellipse;whiteSpace=wrap;html=1;aspect=fixed;" parent="1" vertex="1">
                    <mxGeometry x="166" y="568" width="10" height="10" as="geometry"/>
                </mxCell>
                <mxCell id="EqLmaS4XHGkuEMbsUwe7-125" value="" style="ellipse;whiteSpace=wrap;html=1;aspect=fixed;" parent="1" vertex="1">
                    <mxGeometry x="182" y="676" width="10" height="10" as="geometry"/>
                </mxCell>
                <mxCell id="EqLmaS4XHGkuEMbsUwe7-126" value="badge" style="text;html=1;align=center;verticalAlign=middle;resizable=0;points=[];autosize=1;strokeColor=none;fillColor=none;" parent="1" vertex="1">
                    <mxGeometry x="-39" y="638" width="60" height="30" as="geometry"/>
                </mxCell>
                <mxCell id="EqLmaS4XHGkuEMbsUwe7-128" value="" style="endArrow=none;html=1;rounded=0;exitX=0.041;exitY=0.007;exitDx=0;exitDy=0;exitPerimeter=0;" parent="1" source="Gjo6DUxktxaH3FMSYRhE-1" edge="1">
                    <mxGeometry width="50" height="50" relative="1" as="geometry">
                        <mxPoint x="-25" y="640" as="sourcePoint"/>
                        <mxPoint x="25" y="590" as="targetPoint"/>
                    </mxGeometry>
                </mxCell>
                <mxCell id="EqLmaS4XHGkuEMbsUwe7-129" value="" style="endArrow=none;html=1;rounded=0;exitX=0.177;exitY=-0.023;exitDx=0;exitDy=0;exitPerimeter=0;" parent="1" source="Gjo6DUxktxaH3FMSYRhE-1" edge="1">
                    <mxGeometry width="50" height="50" relative="1" as="geometry">
                        <mxPoint x="12" y="622" as="sourcePoint"/>
                        <mxPoint x="62" y="572" as="targetPoint"/>
                    </mxGeometry>
                </mxCell>
                <mxCell id="EqLmaS4XHGkuEMbsUwe7-130" value="" style="endArrow=none;html=1;rounded=0;exitX=0.585;exitY=-0.001;exitDx=0;exitDy=0;exitPerimeter=0;" parent="1" edge="1">
                    <mxGeometry width="50" height="50" relative="1" as="geometry">
                        <mxPoint x="130.20000000000005" y="599.9999999999999" as="sourcePoint"/>
                        <mxPoint x="130" y="582.06" as="targetPoint"/>
                    </mxGeometry>
                </mxCell>
                <mxCell id="EqLmaS4XHGkuEMbsUwe7-131" value="" style="endArrow=none;html=1;rounded=0;exitX=0.951;exitY=-0.001;exitDx=0;exitDy=0;exitPerimeter=0;" parent="1" source="Gjo6DUxktxaH3FMSYRhE-1" edge="1">
                    <mxGeometry width="50" height="50" relative="1" as="geometry">
                        <mxPoint x="119" y="628" as="sourcePoint"/>
                        <mxPoint x="169" y="578" as="targetPoint"/>
                    </mxGeometry>
                </mxCell>
                <mxCell id="EqLmaS4XHGkuEMbsUwe7-135" value="" style="ellipse;whiteSpace=wrap;html=1;aspect=fixed;" parent="1" vertex="1">
                    <mxGeometry x="451" y="270" width="10" height="10" as="geometry"/>
                </mxCell>
                <mxCell id="EqLmaS4XHGkuEMbsUwe7-137" value="" style="endArrow=none;html=1;rounded=0;exitX=0.793;exitY=-0.001;exitDx=0;exitDy=0;exitPerimeter=0;" parent="1" edge="1">
                    <mxGeometry width="50" height="50" relative="1" as="geometry">
                        <mxPoint x="456.1600000000001" y="299.94000000000005" as="sourcePoint"/>
                        <mxPoint x="456" y="280" as="targetPoint"/>
                    </mxGeometry>
                </mxCell>
                <mxCell id="EqLmaS4XHGkuEMbsUwe7-139" value="" style="ellipse;whiteSpace=wrap;html=1;aspect=fixed;" parent="1" vertex="1">
                    <mxGeometry x="845" y="407" width="10" height="10" as="geometry"/>
                </mxCell>
                <mxCell id="EqLmaS4XHGkuEMbsUwe7-140" value="" style="ellipse;whiteSpace=wrap;html=1;aspect=fixed;" parent="1" vertex="1">
                    <mxGeometry x="915" y="408" width="10" height="10" as="geometry"/>
                </mxCell>
                <mxCell id="EqLmaS4XHGkuEMbsUwe7-141" value="" style="endArrow=none;html=1;rounded=0;exitX=0.057;exitY=-0.01;exitDx=0;exitDy=0;exitPerimeter=0;" parent="1" source="Gjo6DUxktxaH3FMSYRhE-18" edge="1">
                    <mxGeometry width="50" height="50" relative="1" as="geometry">
                        <mxPoint x="735" y="467" as="sourcePoint"/>
                        <mxPoint x="785" y="417" as="targetPoint"/>
                    </mxGeometry>
                </mxCell>
                <mxCell id="EqLmaS4XHGkuEMbsUwe7-142" value="" style="endArrow=none;html=1;rounded=0;exitX=0.416;exitY=-0.019;exitDx=0;exitDy=0;exitPerimeter=0;" parent="1" source="Gjo6DUxktxaH3FMSYRhE-18" edge="1">
                    <mxGeometry width="50" height="50" relative="1" as="geometry">
                        <mxPoint x="800" y="467" as="sourcePoint"/>
                        <mxPoint x="850" y="417" as="targetPoint"/>
                    </mxGeometry>
                </mxCell>
                <mxCell id="EqLmaS4XHGkuEMbsUwe7-144" value="" style="endArrow=none;html=1;rounded=0;exitX=0.942;exitY=-0.015;exitDx=0;exitDy=0;exitPerimeter=0;" parent="1" source="Gjo6DUxktxaH3FMSYRhE-18" edge="1">
                    <mxGeometry width="50" height="50" relative="1" as="geometry">
                        <mxPoint x="870" y="468" as="sourcePoint"/>
                        <mxPoint x="920" y="418" as="targetPoint"/>
                    </mxGeometry>
                </mxCell>
                <mxCell id="EqLmaS4XHGkuEMbsUwe7-147" value="" style="ellipse;whiteSpace=wrap;html=1;aspect=fixed;" parent="1" vertex="1">
                    <mxGeometry x="1095" y="688" width="10" height="10" as="geometry"/>
                </mxCell>
                <mxCell id="EqLmaS4XHGkuEMbsUwe7-148" value="" style="endArrow=none;html=1;rounded=0;exitX=0.878;exitY=-0.006;exitDx=0;exitDy=0;exitPerimeter=0;" parent="1" source="Gjo6DUxktxaH3FMSYRhE-10" edge="1" target="70">
                    <mxGeometry width="50" height="50" relative="1" as="geometry">
                        <mxPoint x="1055" y="620" as="sourcePoint"/>
                        <mxPoint x="1105" y="570" as="targetPoint"/>
                    </mxGeometry>
                </mxCell>
                <mxCell id="EqLmaS4XHGkuEMbsUwe7-149" value="" style="endArrow=none;html=1;rounded=0;exitX=0.5;exitY=0;exitDx=0;exitDy=0;" parent="1" source="EqLmaS4XHGkuEMbsUwe7-147" edge="1">
                    <mxGeometry width="50" height="50" relative="1" as="geometry">
                        <mxPoint x="1050" y="710" as="sourcePoint"/>
                        <mxPoint x="1100" y="660" as="targetPoint"/>
                    </mxGeometry>
                </mxCell>
                <mxCell id="EqLmaS4XHGkuEMbsUwe7-152" value="nome" style="text;html=1;align=center;verticalAlign=middle;resizable=0;points=[];autosize=1;strokeColor=none;fillColor=none;" parent="1" vertex="1">
                    <mxGeometry x="732.07" y="1064" width="50" height="30" as="geometry"/>
                </mxCell>
                <mxCell id="EqLmaS4XHGkuEMbsUwe7-153" value="grado di parentela" style="text;html=1;align=center;verticalAlign=middle;resizable=0;points=[];autosize=1;strokeColor=none;fillColor=none;" parent="1" vertex="1">
                    <mxGeometry x="925" y="1101" width="120" height="30" as="geometry"/>
                </mxCell>
                <mxCell id="EqLmaS4XHGkuEMbsUwe7-154" value="cognome" style="text;html=1;align=center;verticalAlign=middle;resizable=0;points=[];autosize=1;strokeColor=none;fillColor=none;" parent="1" vertex="1">
                    <mxGeometry x="775" y="1159" width="70" height="30" as="geometry"/>
                </mxCell>
                <mxCell id="EqLmaS4XHGkuEMbsUwe7-155" value="c.f. &lt;br&gt;accompagnatore" style="text;html=1;align=center;verticalAlign=middle;resizable=0;points=[];autosize=1;strokeColor=none;fillColor=none;" parent="1" vertex="1">
                    <mxGeometry x="693" y="1111" width="110" height="40" as="geometry"/>
                </mxCell>
                <mxCell id="EqLmaS4XHGkuEMbsUwe7-156" value="data&amp;nbsp;&lt;div&gt;nascita&lt;/div&gt;" style="text;html=1;align=center;verticalAlign=middle;resizable=0;points=[];autosize=1;strokeColor=none;fillColor=none;" parent="1" vertex="1">
                    <mxGeometry x="865" y="1159" width="60" height="40" as="geometry"/>
                </mxCell>
                <mxCell id="EqLmaS4XHGkuEMbsUwe7-157" value="" style="ellipse;whiteSpace=wrap;html=1;aspect=fixed;" parent="1" vertex="1">
                    <mxGeometry x="965" y="1101" width="10" height="10" as="geometry"/>
                </mxCell>
                <mxCell id="EqLmaS4XHGkuEMbsUwe7-158" value="" style="ellipse;whiteSpace=wrap;html=1;aspect=fixed;" parent="1" vertex="1">
                    <mxGeometry x="890" y="1159" width="10" height="10" as="geometry"/>
                </mxCell>
                <mxCell id="EqLmaS4XHGkuEMbsUwe7-161" value="" style="ellipse;whiteSpace=wrap;html=1;aspect=fixed;" parent="1" vertex="1">
                    <mxGeometry x="753.2800000000001" y="1085" width="10" height="10" as="geometry"/>
                </mxCell>
                <mxCell id="EqLmaS4XHGkuEMbsUwe7-162" value="" style="endArrow=none;html=1;rounded=0;entryX=-0.005;entryY=0.153;entryDx=0;entryDy=0;entryPerimeter=0;" parent="1" target="Gjo6DUxktxaH3FMSYRhE-7" edge="1">
                    <mxGeometry width="50" height="50" relative="1" as="geometry">
                        <mxPoint x="763.2800000000001" y="1089" as="sourcePoint"/>
                        <mxPoint x="798.2799999999999" y="1082.5" as="targetPoint"/>
                    </mxGeometry>
                </mxCell>
                <mxCell id="EqLmaS4XHGkuEMbsUwe7-163" value="" style="endArrow=none;html=1;rounded=0;entryX=-0.002;entryY=0.596;entryDx=0;entryDy=0;entryPerimeter=0;exitX=1;exitY=0.5;exitDx=0;exitDy=0;" parent="1" target="Gjo6DUxktxaH3FMSYRhE-7" edge="1">
                    <mxGeometry width="50" height="50" relative="1" as="geometry">
                        <mxPoint x="773.2800000000002" y="1116" as="sourcePoint"/>
                        <mxPoint x="799.0000000000001" y="1094.05" as="targetPoint"/>
                    </mxGeometry>
                </mxCell>
                <mxCell id="EqLmaS4XHGkuEMbsUwe7-164" value="" style="endArrow=none;html=1;rounded=0;entryX=0.174;entryY=1.026;entryDx=0;entryDy=0;entryPerimeter=0;exitX=0.508;exitY=-0.023;exitDx=0;exitDy=0;exitPerimeter=0;" parent="1" edge="1">
                    <mxGeometry width="50" height="50" relative="1" as="geometry">
                        <mxPoint x="809.5299999999997" y="1169.3100000000002" as="sourcePoint"/>
                        <mxPoint x="809.8699999999999" y="1140.6499999999999" as="targetPoint"/>
                    </mxGeometry>
                </mxCell>
                <mxCell id="EqLmaS4XHGkuEMbsUwe7-165" value="" style="endArrow=none;html=1;rounded=0;" parent="1" edge="1">
                    <mxGeometry width="50" height="50" relative="1" as="geometry">
                        <mxPoint x="895" y="1159" as="sourcePoint"/>
                        <mxPoint x="895" y="1140" as="targetPoint"/>
                    </mxGeometry>
                </mxCell>
                <mxCell id="EqLmaS4XHGkuEMbsUwe7-166" value="" style="endArrow=none;html=1;rounded=0;entryX=1.005;entryY=0.426;entryDx=0;entryDy=0;entryPerimeter=0;exitX=0;exitY=0.5;exitDx=0;exitDy=0;" parent="1" source="EqLmaS4XHGkuEMbsUwe7-157" target="Gjo6DUxktxaH3FMSYRhE-7" edge="1">
                    <mxGeometry width="50" height="50" relative="1" as="geometry">
                        <mxPoint x="955" y="1100.33" as="sourcePoint"/>
                        <mxPoint x="939.69" y="1080.0049999999999" as="targetPoint"/>
                    </mxGeometry>
                </mxCell>
                <mxCell id="EqLmaS4XHGkuEMbsUwe7-167" value="" style="ellipse;whiteSpace=wrap;html=1;aspect=fixed;" parent="1" vertex="1">
                    <mxGeometry x="945" y="750" width="10" height="10" as="geometry"/>
                </mxCell>
                <mxCell id="EqLmaS4XHGkuEMbsUwe7-168" value="" style="ellipse;whiteSpace=wrap;html=1;aspect=fixed;" parent="1" vertex="1">
                    <mxGeometry x="910" y="718" width="10" height="10" as="geometry"/>
                </mxCell>
                <mxCell id="EqLmaS4XHGkuEMbsUwe7-170" value="" style="ellipse;whiteSpace=wrap;html=1;aspect=fixed;" parent="1" vertex="1">
                    <mxGeometry x="840" y="718" width="10" height="10" as="geometry"/>
                </mxCell>
                <mxCell id="EqLmaS4XHGkuEMbsUwe7-171" value="" style="ellipse;whiteSpace=wrap;html=1;aspect=fixed;" parent="1" vertex="1">
                    <mxGeometry x="800" y="728" width="10" height="10" as="geometry"/>
                </mxCell>
                <mxCell id="EqLmaS4XHGkuEMbsUwe7-172" value="" style="ellipse;whiteSpace=wrap;html=1;aspect=fixed;" parent="1" vertex="1">
                    <mxGeometry x="763" y="742" width="10" height="10" as="geometry"/>
                </mxCell>
                <mxCell id="EqLmaS4XHGkuEMbsUwe7-173" value="" style="endArrow=none;html=1;rounded=0;entryX=0.981;entryY=0.635;entryDx=0;entryDy=0;entryPerimeter=0;exitX=-0.009;exitY=0.04;exitDx=0;exitDy=0;exitPerimeter=0;" parent="1" source="Gjo6DUxktxaH3FMSYRhE-5" target="EqLmaS4XHGkuEMbsUwe7-172" edge="1">
                    <mxGeometry width="50" height="50" relative="1" as="geometry">
                        <mxPoint x="750" y="810" as="sourcePoint"/>
                        <mxPoint x="800" y="760" as="targetPoint"/>
                    </mxGeometry>
                </mxCell>
                <mxCell id="EqLmaS4XHGkuEMbsUwe7-174" value="" style="endArrow=none;html=1;rounded=0;exitX=0.043;exitY=-0.012;exitDx=0;exitDy=0;exitPerimeter=0;" parent="1" source="Gjo6DUxktxaH3FMSYRhE-5" edge="1">
                    <mxGeometry width="50" height="50" relative="1" as="geometry">
                        <mxPoint x="755" y="788" as="sourcePoint"/>
                        <mxPoint x="805" y="738" as="targetPoint"/>
                    </mxGeometry>
                </mxCell>
                <mxCell id="EqLmaS4XHGkuEMbsUwe7-175" value="" style="endArrow=none;html=1;rounded=0;exitX=0.379;exitY=-0.012;exitDx=0;exitDy=0;exitPerimeter=0;" parent="1" source="Gjo6DUxktxaH3FMSYRhE-5" edge="1">
                    <mxGeometry width="50" height="50" relative="1" as="geometry">
                        <mxPoint x="795" y="778" as="sourcePoint"/>
                        <mxPoint x="845" y="728" as="targetPoint"/>
                    </mxGeometry>
                </mxCell>
                <mxCell id="EqLmaS4XHGkuEMbsUwe7-176" value="" style="endArrow=none;html=1;rounded=0;exitX=0.621;exitY=0.001;exitDx=0;exitDy=0;exitPerimeter=0;" parent="1" source="Gjo6DUxktxaH3FMSYRhE-5" edge="1">
                    <mxGeometry width="50" height="50" relative="1" as="geometry">
                        <mxPoint x="825" y="790" as="sourcePoint"/>
                        <mxPoint x="875" y="740" as="targetPoint"/>
                    </mxGeometry>
                </mxCell>
                <mxCell id="EqLmaS4XHGkuEMbsUwe7-177" value="" style="endArrow=none;html=1;rounded=0;exitX=0.959;exitY=-0.002;exitDx=0;exitDy=0;exitPerimeter=0;" parent="1" source="Gjo6DUxktxaH3FMSYRhE-5" edge="1">
                    <mxGeometry width="50" height="50" relative="1" as="geometry">
                        <mxPoint x="865" y="778" as="sourcePoint"/>
                        <mxPoint x="915" y="728" as="targetPoint"/>
                    </mxGeometry>
                </mxCell>
                <mxCell id="EqLmaS4XHGkuEMbsUwe7-178" value="" style="endArrow=none;html=1;rounded=0;exitX=0.999;exitY=0.152;exitDx=0;exitDy=0;exitPerimeter=0;" parent="1" source="Gjo6DUxktxaH3FMSYRhE-5" edge="1">
                    <mxGeometry width="50" height="50" relative="1" as="geometry">
                        <mxPoint x="896" y="807" as="sourcePoint"/>
                        <mxPoint x="946" y="757" as="targetPoint"/>
                    </mxGeometry>
                </mxCell>
                <mxCell id="EqLmaS4XHGkuEMbsUwe7-180" value="" style="ellipse;whiteSpace=wrap;html=1;aspect=fixed;" parent="1" vertex="1">
                    <mxGeometry x="683" y="569" width="10" height="10" as="geometry"/>
                </mxCell>
                <mxCell id="EqLmaS4XHGkuEMbsUwe7-181" value="" style="ellipse;whiteSpace=wrap;html=1;aspect=fixed;" parent="1" vertex="1">
                    <mxGeometry x="605" y="562" width="10" height="10" as="geometry"/>
                </mxCell>
                <mxCell id="EqLmaS4XHGkuEMbsUwe7-182" value="" style="ellipse;whiteSpace=wrap;html=1;aspect=fixed;" parent="1" vertex="1">
                    <mxGeometry x="730" y="572" width="10" height="10" as="geometry"/>
                </mxCell>
                <mxCell id="EqLmaS4XHGkuEMbsUwe7-183" value="" style="ellipse;whiteSpace=wrap;html=1;aspect=fixed;" parent="1" vertex="1">
                    <mxGeometry x="690" y="678" width="10" height="10" as="geometry"/>
                </mxCell>
                <mxCell id="EqLmaS4XHGkuEMbsUwe7-184" value="" style="endArrow=none;html=1;rounded=0;exitX=-0.003;exitY=0.122;exitDx=0;exitDy=0;exitPerimeter=0;" parent="1" source="Gjo6DUxktxaH3FMSYRhE-17" edge="1">
                    <mxGeometry width="50" height="50" relative="1" as="geometry">
                        <mxPoint x="530" y="646" as="sourcePoint"/>
                        <mxPoint x="580" y="596" as="targetPoint"/>
                    </mxGeometry>
                </mxCell>
                <mxCell id="EqLmaS4XHGkuEMbsUwe7-185" value="" style="endArrow=none;html=1;rounded=0;exitX=0.083;exitY=-0.012;exitDx=0;exitDy=0;exitPerimeter=0;" parent="1" source="Gjo6DUxktxaH3FMSYRhE-17" edge="1">
                    <mxGeometry width="50" height="50" relative="1" as="geometry">
                        <mxPoint x="560" y="622" as="sourcePoint"/>
                        <mxPoint x="610" y="572" as="targetPoint"/>
                    </mxGeometry>
                </mxCell>
                <mxCell id="EqLmaS4XHGkuEMbsUwe7-186" value="" style="endArrow=none;html=1;rounded=0;exitX=0.737;exitY=-0.006;exitDx=0;exitDy=0;exitPerimeter=0;" parent="1" source="Gjo6DUxktxaH3FMSYRhE-17" edge="1">
                    <mxGeometry width="50" height="50" relative="1" as="geometry">
                        <mxPoint x="639" y="629" as="sourcePoint"/>
                        <mxPoint x="689" y="579" as="targetPoint"/>
                    </mxGeometry>
                </mxCell>
                <mxCell id="EqLmaS4XHGkuEMbsUwe7-187" value="" style="endArrow=none;html=1;rounded=0;" parent="1" edge="1">
                    <mxGeometry width="50" height="50" relative="1" as="geometry">
                        <mxPoint x="710" y="600" as="sourcePoint"/>
                        <mxPoint x="731" y="579" as="targetPoint"/>
                    </mxGeometry>
                </mxCell>
                <mxCell id="EqLmaS4XHGkuEMbsUwe7-188" value="" style="endArrow=none;html=1;rounded=0;exitX=0.5;exitY=0;exitDx=0;exitDy=0;" parent="1" source="EqLmaS4XHGkuEMbsUwe7-183" edge="1">
                    <mxGeometry width="50" height="50" relative="1" as="geometry">
                        <mxPoint x="646" y="710" as="sourcePoint"/>
                        <mxPoint x="696" y="660" as="targetPoint"/>
                    </mxGeometry>
                </mxCell>
                <mxCell id="EqLmaS4XHGkuEMbsUwe7-191" value="" style="endArrow=none;html=1;rounded=0;exitX=0.172;exitY=-0.009;exitDx=0;exitDy=0;exitPerimeter=0;" parent="1" edge="1">
                    <mxGeometry width="50" height="50" relative="1" as="geometry">
                        <mxPoint x="321.0000000000001" y="439.99999999999994" as="sourcePoint"/>
                        <mxPoint x="321" y="420" as="targetPoint"/>
                    </mxGeometry>
                </mxCell>
                <mxCell id="EqLmaS4XHGkuEMbsUwe7-193" value="" style="ellipse;whiteSpace=wrap;html=1;aspect=fixed;" parent="1" vertex="1">
                    <mxGeometry x="235" y="897" width="10" height="10" as="geometry"/>
                </mxCell>
                <mxCell id="EqLmaS4XHGkuEMbsUwe7-194" value="" style="ellipse;whiteSpace=wrap;html=1;aspect=fixed;" parent="1" vertex="1">
                    <mxGeometry x="241" y="1005" width="10" height="10" as="geometry"/>
                </mxCell>
                <mxCell id="EqLmaS4XHGkuEMbsUwe7-195" value="" style="ellipse;whiteSpace=wrap;html=1;aspect=fixed;" parent="1" vertex="1">
                    <mxGeometry x="55" y="1166.33" width="10" height="10" as="geometry"/>
                </mxCell>
                <mxCell id="EqLmaS4XHGkuEMbsUwe7-198" value="" style="ellipse;whiteSpace=wrap;html=1;aspect=fixed;" parent="1" vertex="1">
                    <mxGeometry x="57" y="1270.33" width="10" height="10" as="geometry"/>
                </mxCell>
                <mxCell id="EqLmaS4XHGkuEMbsUwe7-199" value="" style="ellipse;whiteSpace=wrap;html=1;aspect=fixed;" parent="1" vertex="1">
                    <mxGeometry x="-125" y="885" width="10" height="10" as="geometry"/>
                </mxCell>
                <mxCell id="EqLmaS4XHGkuEMbsUwe7-201" value="" style="ellipse;whiteSpace=wrap;html=1;aspect=fixed;" parent="1" vertex="1">
                    <mxGeometry x="-125" y="998" width="10" height="10" as="geometry"/>
                </mxCell>
                <mxCell id="EqLmaS4XHGkuEMbsUwe7-202" value="" style="ellipse;whiteSpace=wrap;html=1;aspect=fixed;" parent="1" vertex="1">
                    <mxGeometry x="-40" y="1001" width="10" height="10" as="geometry"/>
                </mxCell>
                <mxCell id="EqLmaS4XHGkuEMbsUwe7-203" value="" style="ellipse;whiteSpace=wrap;html=1;aspect=fixed;" parent="1" vertex="1">
                    <mxGeometry x="135" y="881" width="10" height="10" as="geometry"/>
                </mxCell>
                <mxCell id="EqLmaS4XHGkuEMbsUwe7-205" value="" style="ellipse;whiteSpace=wrap;html=1;aspect=fixed;" parent="1" vertex="1">
                    <mxGeometry x="125" y="1010" width="10" height="10" as="geometry"/>
                </mxCell>
                <mxCell id="EqLmaS4XHGkuEMbsUwe7-206" value="" style="ellipse;whiteSpace=wrap;html=1;aspect=fixed;" parent="1" vertex="1">
                    <mxGeometry x="59.5" y="898" width="10" height="10" as="geometry"/>
                </mxCell>
                <mxCell id="EqLmaS4XHGkuEMbsUwe7-208" value="" style="endArrow=none;html=1;rounded=0;exitX=0.219;exitY=-0.018;exitDx=0;exitDy=0;exitPerimeter=0;" parent="1" source="Gjo6DUxktxaH3FMSYRhE-15" edge="1">
                    <mxGeometry width="50" height="50" relative="1" as="geometry">
                        <mxPoint x="-169" y="945" as="sourcePoint"/>
                        <mxPoint x="-119" y="895" as="targetPoint"/>
                    </mxGeometry>
                </mxCell>
                <mxCell id="EqLmaS4XHGkuEMbsUwe7-209" value="" style="endArrow=none;html=1;rounded=0;exitX=0.75;exitY=0;exitDx=0;exitDy=0;entryX=0.5;entryY=1;entryDx=0;entryDy=0;" parent="1" source="Gjo6DUxktxaH3FMSYRhE-15" edge="1">
                    <mxGeometry width="50" height="50" relative="1" as="geometry">
                        <mxPoint x="-105" y="940" as="sourcePoint"/>
                        <mxPoint x="-55" y="889" as="targetPoint"/>
                    </mxGeometry>
                </mxCell>
                <mxCell id="EqLmaS4XHGkuEMbsUwe7-210" value="" style="endArrow=none;html=1;rounded=0;entryX=0.207;entryY=0.995;entryDx=0;entryDy=0;entryPerimeter=0;" parent="1" target="Gjo6DUxktxaH3FMSYRhE-15" edge="1">
                    <mxGeometry width="50" height="50" relative="1" as="geometry">
                        <mxPoint x="-120" y="998" as="sourcePoint"/>
                        <mxPoint x="-70" y="948" as="targetPoint"/>
                    </mxGeometry>
                </mxCell>
                <mxCell id="EqLmaS4XHGkuEMbsUwe7-211" value="" style="endArrow=none;html=1;rounded=0;entryX=0.914;entryY=1.012;entryDx=0;entryDy=0;entryPerimeter=0;" parent="1" target="Gjo6DUxktxaH3FMSYRhE-15" edge="1">
                    <mxGeometry width="50" height="50" relative="1" as="geometry">
                        <mxPoint x="-35" y="1001" as="sourcePoint"/>
                        <mxPoint x="15" y="951" as="targetPoint"/>
                    </mxGeometry>
                </mxCell>
                <mxCell id="EqLmaS4XHGkuEMbsUwe7-213" value="" style="endArrow=none;html=1;rounded=0;entryX=0.391;entryY=1.003;entryDx=0;entryDy=0;entryPerimeter=0;" parent="1" target="Gjo6DUxktxaH3FMSYRhE-16" edge="1">
                    <mxGeometry width="50" height="50" relative="1" as="geometry">
                        <mxPoint x="247" y="1005" as="sourcePoint"/>
                        <mxPoint x="297" y="955" as="targetPoint"/>
                    </mxGeometry>
                </mxCell>
                <mxCell id="EqLmaS4XHGkuEMbsUwe7-214" value="" style="endArrow=none;html=1;rounded=0;entryX=0.5;entryY=1;entryDx=0;entryDy=0;" parent="1" target="EqLmaS4XHGkuEMbsUwe7-193" edge="1">
                    <mxGeometry width="50" height="50" relative="1" as="geometry">
                        <mxPoint x="241" y="920" as="sourcePoint"/>
                        <mxPoint x="291" y="870" as="targetPoint"/>
                    </mxGeometry>
                </mxCell>
                <mxCell id="EqLmaS4XHGkuEMbsUwe7-215" value="" style="endArrow=none;html=1;rounded=0;exitX=0.173;exitY=-0.017;exitDx=0;exitDy=0;exitPerimeter=0;entryX=0.5;entryY=1;entryDx=0;entryDy=0;" parent="1" source="Gjo6DUxktxaH3FMSYRhE-11" target="EqLmaS4XHGkuEMbsUwe7-195" edge="1">
                    <mxGeometry width="50" height="50" relative="1" as="geometry">
                        <mxPoint x="10" y="1227.33" as="sourcePoint"/>
                        <mxPoint x="60" y="1177.33" as="targetPoint"/>
                    </mxGeometry>
                </mxCell>
                <mxCell id="EqLmaS4XHGkuEMbsUwe7-216" value="" style="endArrow=none;html=1;rounded=0;entryX=0.5;entryY=1;entryDx=0;entryDy=0;" parent="1" edge="1">
                    <mxGeometry width="50" height="50" relative="1" as="geometry">
                        <mxPoint x="145" y="1197.33" as="sourcePoint"/>
                        <mxPoint x="145" y="1176.33" as="targetPoint"/>
                    </mxGeometry>
                </mxCell>
                <mxCell id="EqLmaS4XHGkuEMbsUwe7-217" value="" style="endArrow=none;html=1;rounded=0;entryX=0.181;entryY=1;entryDx=0;entryDy=0;entryPerimeter=0;" parent="1" target="Gjo6DUxktxaH3FMSYRhE-11" edge="1">
                    <mxGeometry width="50" height="50" relative="1" as="geometry">
                        <mxPoint x="62" y="1270.33" as="sourcePoint"/>
                        <mxPoint x="112" y="1220.33" as="targetPoint"/>
                    </mxGeometry>
                </mxCell>
                <mxCell id="EqLmaS4XHGkuEMbsUwe7-219" value="" style="endArrow=none;html=1;rounded=0;exitX=0.88;exitY=0.952;exitDx=0;exitDy=0;exitPerimeter=0;" parent="1" edge="1">
                    <mxGeometry width="50" height="50" relative="1" as="geometry">
                        <mxPoint x="66.09999999999991" y="921.0799999999999" as="sourcePoint"/>
                        <mxPoint x="65.5" y="908" as="targetPoint"/>
                    </mxGeometry>
                </mxCell>
                <mxCell id="EqLmaS4XHGkuEMbsUwe7-220" value="" style="endArrow=none;html=1;rounded=0;entryX=0.5;entryY=1;entryDx=0;entryDy=0;" parent="1" edge="1" target="EqLmaS4XHGkuEMbsUwe7-203">
                    <mxGeometry width="50" height="50" relative="1" as="geometry">
                        <mxPoint x="140" y="920" as="sourcePoint"/>
                        <mxPoint x="186.5" y="927" as="targetPoint"/>
                    </mxGeometry>
                </mxCell>
                <mxCell id="EqLmaS4XHGkuEMbsUwe7-221" value="" style="endArrow=none;html=1;rounded=0;exitX=0.724;exitY=1.003;exitDx=0;exitDy=0;exitPerimeter=0;" parent="1" source="Gjo6DUxktxaH3FMSYRhE-12" edge="1">
                    <mxGeometry width="50" height="50" relative="1" as="geometry">
                        <mxPoint x="148.5" y="1021" as="sourcePoint"/>
                        <mxPoint x="130" y="1010" as="targetPoint"/>
                    </mxGeometry>
                </mxCell>
                <mxCell id="3" value="" style="endArrow=none;html=1;exitX=0.5;exitY=0;exitDx=0;exitDy=0;entryX=0.5;entryY=1;entryDx=0;entryDy=0;" parent="1" source="Gjo6DUxktxaH3FMSYRhE-12" edge="1">
                    <mxGeometry width="50" height="50" relative="1" as="geometry">
                        <mxPoint x="69.5" y="782" as="sourcePoint"/>
                        <mxPoint x="99.5" y="872" as="targetPoint"/>
                    </mxGeometry>
                </mxCell>
                <mxCell id="10" value="" style="endArrow=none;html=1;" parent="1" edge="1">
                    <mxGeometry width="50" height="50" relative="1" as="geometry">
                        <mxPoint x="-80" y="1310" as="sourcePoint"/>
                        <mxPoint x="-80" y="981" as="targetPoint"/>
                    </mxGeometry>
                </mxCell>
                <mxCell id="11" value="" style="endArrow=none;html=1;" parent="1" edge="1">
                    <mxGeometry width="50" height="50" relative="1" as="geometry">
                        <mxPoint x="-80" y="1309" as="sourcePoint"/>
                        <mxPoint x="725" y="1309.5" as="targetPoint"/>
                    </mxGeometry>
                </mxCell>
                <mxCell id="14" value="ricevono" style="shape=rhombus;perimeter=rhombusPerimeter;whiteSpace=wrap;html=1;align=center;" parent="1" vertex="1">
                    <mxGeometry x="401" y="1279" width="120" height="60" as="geometry"/>
                </mxCell>
                <mxCell id="15" value="" style="endArrow=none;html=1;exitX=1;exitY=0.5;exitDx=0;exitDy=0;" parent="1" source="14" edge="1">
                    <mxGeometry width="50" height="50" relative="1" as="geometry">
                        <mxPoint x="845" y="1310" as="sourcePoint"/>
                        <mxPoint x="1060" y="1310" as="targetPoint"/>
                    </mxGeometry>
                </mxCell>
                <mxCell id="19" value="" style="endArrow=none;html=1;rounded=0;exitX=1;exitY=0.5;exitDx=0;exitDy=0;" parent="1" source="Gjo6DUxktxaH3FMSYRhE-16" target="18" edge="1">
                    <mxGeometry width="50" height="50" relative="1" as="geometry">
                        <mxPoint x="321" y="949.9999999999998" as="sourcePoint"/>
                        <mxPoint x="660" y="949.9999999999998" as="targetPoint"/>
                    </mxGeometry>
                </mxCell>
                <mxCell id="18" value="si sottopongono" style="shape=rhombus;perimeter=rhombusPerimeter;whiteSpace=wrap;html=1;align=center;" parent="1" vertex="1">
                    <mxGeometry x="400" y="920" width="120" height="60" as="geometry"/>
                </mxCell>
                <mxCell id="24" value="" style="endArrow=none;html=1;rounded=0;exitX=0.167;exitY=-0.009;exitDx=0;exitDy=0;exitPerimeter=0;" parent="1" source="Gjo6DUxktxaH3FMSYRhE-14" target="EqLmaS4XHGkuEMbsUwe7-189" edge="1">
                    <mxGeometry width="50" height="50" relative="1" as="geometry">
                        <mxPoint x="390" y="439.5" as="sourcePoint"/>
                        <mxPoint x="395" y="409.5" as="targetPoint"/>
                    </mxGeometry>
                </mxCell>
                <mxCell id="EqLmaS4XHGkuEMbsUwe7-189" value="" style="ellipse;whiteSpace=wrap;html=1;aspect=fixed;" parent="1" vertex="1">
                    <mxGeometry x="216" y="408" width="10" height="10" as="geometry"/>
                </mxCell>
                <mxCell id="26" value="" style="endArrow=none;html=1;entryX=0;entryY=0.5;entryDx=0;entryDy=0;exitX=1;exitY=0.5;exitDx=0;exitDy=0;" parent="1" source="Gjo6DUxktxaH3FMSYRhE-14" target="GProfhIi8R3kbPbWlugL-12" edge="1">
                    <mxGeometry width="50" height="50" relative="1" as="geometry">
                        <mxPoint x="388" y="518" as="sourcePoint"/>
                        <mxPoint x="438" y="468" as="targetPoint"/>
                    </mxGeometry>
                </mxCell>
                <mxCell id="27" value="" style="endArrow=none;html=1;rounded=0;entryX=0.5;entryY=1;entryDx=0;entryDy=0;" parent="1" target="GProfhIi8R3kbPbWlugL-12" edge="1">
                    <mxGeometry width="50" height="50" relative="1" as="geometry">
                        <mxPoint x="520" y="470" as="sourcePoint"/>
                        <mxPoint x="520" y="360" as="targetPoint"/>
                    </mxGeometry>
                </mxCell>
                <mxCell id="GProfhIi8R3kbPbWlugL-12" value="situate" style="shape=rhombus;perimeter=rhombusPerimeter;whiteSpace=wrap;html=1;align=center;" parent="1" vertex="1">
                    <mxGeometry x="400" y="440" width="120" height="60" as="geometry"/>
                </mxCell>
                <mxCell id="32" value="" style="endArrow=none;html=1;entryX=1.007;entryY=0.499;entryDx=0;entryDy=0;entryPerimeter=0;exitX=0.007;exitY=0.877;exitDx=0;exitDy=0;exitPerimeter=0;" parent="1" source="Gjo6DUxktxaH3FMSYRhE-1" target="EqLmaS4XHGkuEMbsUwe7-126" edge="1">
                    <mxGeometry width="50" height="50" relative="1" as="geometry">
                        <mxPoint x="86" y="600" as="sourcePoint"/>
                        <mxPoint x="136" y="550" as="targetPoint"/>
                    </mxGeometry>
                </mxCell>
                <mxCell id="33" value="" style="endArrow=none;html=1;exitX=1;exitY=0.5;exitDx=0;exitDy=0;" parent="1" source="Gjo6DUxktxaH3FMSYRhE-14" edge="1">
                    <mxGeometry width="50" height="50" relative="1" as="geometry">
                        <mxPoint x="265" y="518" as="sourcePoint"/>
                        <mxPoint x="315" y="470" as="targetPoint"/>
                    </mxGeometry>
                </mxCell>
                <mxCell id="35" value="" style="endArrow=none;html=1;" parent="1" edge="1">
                    <mxGeometry width="50" height="50" relative="1" as="geometry">
                        <mxPoint x="263.36" y="526" as="sourcePoint"/>
                        <mxPoint x="263.36" y="496" as="targetPoint"/>
                    </mxGeometry>
                </mxCell>
                <mxCell id="36" value="" style="ellipse;whiteSpace=wrap;html=1;aspect=fixed;" parent="1" vertex="1">
                    <mxGeometry x="258.5" y="526" width="10" height="10" as="geometry"/>
                </mxCell>
                <mxCell id="37" value="tipo di attrezzatura" style="text;html=1;align=center;verticalAlign=middle;resizable=0;points=[];autosize=1;strokeColor=none;fillColor=none;" parent="1" vertex="1">
                    <mxGeometry x="261.5" y="516" width="120" height="30" as="geometry"/>
                </mxCell>
                <mxCell id="DA8NWegLXy8gjZj4K9O9-37" value="nome&lt;br&gt;reparto" style="text;html=1;align=center;verticalAlign=middle;resizable=0;points=[];autosize=1;strokeColor=none;fillColor=none;" parent="1" vertex="1">
                    <mxGeometry x="476" y="230" width="60" height="40" as="geometry"/>
                </mxCell>
                <mxCell id="DA8NWegLXy8gjZj4K9O9-39" value="" style="endArrow=none;html=1;rounded=0;exitX=0.793;exitY=-0.001;exitDx=0;exitDy=0;exitPerimeter=0;" parent="1" edge="1">
                    <mxGeometry width="50" height="50" relative="1" as="geometry">
                        <mxPoint x="504.0200000000001" y="300.00000000000006" as="sourcePoint"/>
                        <mxPoint x="503.86" y="280.06" as="targetPoint"/>
                    </mxGeometry>
                </mxCell>
                <mxCell id="DA8NWegLXy8gjZj4K9O9-40" value="disponibilità" style="text;html=1;align=center;verticalAlign=middle;resizable=0;points=[];autosize=1;strokeColor=none;fillColor=none;" parent="1" vertex="1">
                    <mxGeometry x="975" y="545" width="90" height="30" as="geometry"/>
                </mxCell>
                <mxCell id="DA8NWegLXy8gjZj4K9O9-41" value="specializzazione" style="text;html=1;align=center;verticalAlign=middle;resizable=0;points=[];autosize=1;strokeColor=none;fillColor=none;" parent="1" vertex="1">
                    <mxGeometry x="174" y="636" width="110" height="30" as="geometry"/>
                </mxCell>
                <mxCell id="DA8NWegLXy8gjZj4K9O9-42" value="" style="ellipse;whiteSpace=wrap;html=1;aspect=fixed;" parent="1" vertex="1">
                    <mxGeometry x="174" y="646" width="10" height="10" as="geometry"/>
                </mxCell>
                <mxCell id="DA8NWegLXy8gjZj4K9O9-43" value="" style="endArrow=none;html=1;rounded=0;exitX=0;exitY=0.5;exitDx=0;exitDy=0;entryX=1.006;entryY=0.713;entryDx=0;entryDy=0;entryPerimeter=0;" parent="1" source="DA8NWegLXy8gjZj4K9O9-42" target="Gjo6DUxktxaH3FMSYRhE-1" edge="1">
                    <mxGeometry width="50" height="50" relative="1" as="geometry">
                        <mxPoint x="166" y="658" as="sourcePoint"/>
                        <mxPoint x="166" y="640" as="targetPoint"/>
                    </mxGeometry>
                </mxCell>
                <mxCell id="DA8NWegLXy8gjZj4K9O9-44" value="capacità&amp;nbsp;&lt;div&gt;massima&lt;/div&gt;" style="text;html=1;align=center;verticalAlign=middle;resizable=0;points=[];autosize=1;strokeColor=none;fillColor=none;" parent="1" vertex="1">
                    <mxGeometry x="326" y="270" width="70" height="40" as="geometry"/>
                </mxCell>
                <mxCell id="DA8NWegLXy8gjZj4K9O9-45" value="" style="ellipse;whiteSpace=wrap;html=1;aspect=fixed;" parent="1" vertex="1">
                    <mxGeometry x="355" y="304" width="10" height="10" as="geometry"/>
                </mxCell>
                <mxCell id="DA8NWegLXy8gjZj4K9O9-46" value="" style="endArrow=none;html=1;rounded=0;exitX=-0.006;exitY=0.172;exitDx=0;exitDy=0;exitPerimeter=0;" parent="1" source="Gjo6DUxktxaH3FMSYRhE-8" edge="1">
                    <mxGeometry width="50" height="50" relative="1" as="geometry">
                        <mxPoint x="365" y="329" as="sourcePoint"/>
                        <mxPoint x="365" y="310" as="targetPoint"/>
                    </mxGeometry>
                </mxCell>
                <mxCell id="DA8NWegLXy8gjZj4K9O9-47" value="stato&lt;div&gt;manutenzione&lt;/div&gt;" style="text;html=1;align=center;verticalAlign=middle;resizable=0;points=[];autosize=1;strokeColor=none;fillColor=none;" parent="1" vertex="1">
                    <mxGeometry x="221" y="347" width="100" height="40" as="geometry"/>
                </mxCell>
                <mxCell id="DA8NWegLXy8gjZj4K9O9-48" value="" style="ellipse;whiteSpace=wrap;html=1;aspect=fixed;" parent="1" vertex="1">
                    <mxGeometry x="264" y="382" width="10" height="10" as="geometry"/>
                </mxCell>
                <mxCell id="DA8NWegLXy8gjZj4K9O9-49" value="" style="endArrow=none;html=1;rounded=0;exitX=0.568;exitY=-0.014;exitDx=0;exitDy=0;exitPerimeter=0;entryX=0.5;entryY=1;entryDx=0;entryDy=0;" parent="1" source="Gjo6DUxktxaH3FMSYRhE-14" target="DA8NWegLXy8gjZj4K9O9-48" edge="1">
                    <mxGeometry width="50" height="50" relative="1" as="geometry">
                        <mxPoint x="425" y="440" as="sourcePoint"/>
                        <mxPoint x="424" y="403" as="targetPoint"/>
                    </mxGeometry>
                </mxCell>
                <mxCell id="DA8NWegLXy8gjZj4K9O9-52" value="durata" style="text;html=1;align=center;verticalAlign=middle;resizable=0;points=[];autosize=1;strokeColor=none;fillColor=none;" parent="1" vertex="1">
                    <mxGeometry x="-19" y="930" width="60" height="30" as="geometry"/>
                </mxCell>
                <mxCell id="DA8NWegLXy8gjZj4K9O9-53" value="" style="ellipse;whiteSpace=wrap;html=1;aspect=fixed;" parent="1" vertex="1">
                    <mxGeometry x="11" y="950" width="10" height="10" as="geometry"/>
                </mxCell>
                <mxCell id="DA8NWegLXy8gjZj4K9O9-54" value="" style="endArrow=none;html=1;rounded=0;exitX=-0.001;exitY=0.564;exitDx=0;exitDy=0;exitPerimeter=0;" parent="1" source="Gjo6DUxktxaH3FMSYRhE-12" edge="1">
                    <mxGeometry width="50" height="50" relative="1" as="geometry">
                        <mxPoint x="2.4999999999999147" y="968" as="sourcePoint"/>
                        <mxPoint x="20" y="955" as="targetPoint"/>
                    </mxGeometry>
                </mxCell>
                <mxCell id="DA8NWegLXy8gjZj4K9O9-55" value="" style="ellipse;whiteSpace=wrap;html=1;aspect=fixed;" parent="1" vertex="1">
                    <mxGeometry x="1020" y="568" width="10" height="10" as="geometry"/>
                </mxCell>
                <mxCell id="DA8NWegLXy8gjZj4K9O9-56" value="" style="endArrow=none;html=1;rounded=0;" parent="1" edge="1">
                    <mxGeometry width="50" height="50" relative="1" as="geometry">
                        <mxPoint x="1025" y="600" as="sourcePoint"/>
                        <mxPoint x="1024.86" y="578" as="targetPoint"/>
                    </mxGeometry>
                </mxCell>
                <mxCell id="DA8NWegLXy8gjZj4K9O9-57" value="id visita" style="text;html=1;align=center;verticalAlign=middle;resizable=0;points=[];autosize=1;strokeColor=none;fillColor=none;" parent="1" vertex="1">
                    <mxGeometry x="275" y="861" width="60" height="30" as="geometry"/>
                </mxCell>
                <mxCell id="73U9c0HWaYGPaKn10Cvo-39" value="" style="endArrow=none;html=1;rounded=0;" parent="1" edge="1">
                    <mxGeometry width="50" height="50" relative="1" as="geometry">
                        <mxPoint x="129.61" y="680" as="sourcePoint"/>
                        <mxPoint x="260" y="740" as="targetPoint"/>
                    </mxGeometry>
                </mxCell>
                <mxCell id="73U9c0HWaYGPaKn10Cvo-40" value="" style="endArrow=none;html=1;rounded=0;" parent="1" edge="1">
                    <mxGeometry width="50" height="50" relative="1" as="geometry">
                        <mxPoint x="70" y="680" as="sourcePoint"/>
                        <mxPoint x="-80" y="740" as="targetPoint"/>
                    </mxGeometry>
                </mxCell>
                <mxCell id="73U9c0HWaYGPaKn10Cvo-41" value="" style="endArrow=none;html=1;rounded=0;" parent="1" edge="1">
                    <mxGeometry width="50" height="50" relative="1" as="geometry">
                        <mxPoint x="-80" y="760" as="sourcePoint"/>
                        <mxPoint x="-80" y="740" as="targetPoint"/>
                    </mxGeometry>
                </mxCell>
                <mxCell id="73U9c0HWaYGPaKn10Cvo-42" value="" style="endArrow=none;html=1;rounded=0;" parent="1" edge="1">
                    <mxGeometry width="50" height="50" relative="1" as="geometry">
                        <mxPoint x="260" y="760" as="sourcePoint"/>
                        <mxPoint x="260" y="740" as="targetPoint"/>
                    </mxGeometry>
                </mxCell>
                <mxCell id="73U9c0HWaYGPaKn10Cvo-47" value="" style="endArrow=none;html=1;rounded=0;" parent="1" edge="1">
                    <mxGeometry width="50" height="50" relative="1" as="geometry">
                        <mxPoint x="-80" y="330" as="sourcePoint"/>
                        <mxPoint x="45" y="330" as="targetPoint"/>
                    </mxGeometry>
                </mxCell>
                <mxCell id="73U9c0HWaYGPaKn10Cvo-50" value="" style="endArrow=none;html=1;rounded=0;entryX=0.913;entryY=1.003;entryDx=0;entryDy=0;entryPerimeter=0;exitX=0.067;exitY=0.341;exitDx=0;exitDy=0;exitPerimeter=0;" parent="1" source="EqLmaS4XHGkuEMbsUwe7-125" target="Gjo6DUxktxaH3FMSYRhE-1" edge="1">
                    <mxGeometry width="50" height="50" relative="1" as="geometry">
                        <mxPoint x="170" y="680" as="sourcePoint"/>
                        <mxPoint x="220" y="630" as="targetPoint"/>
                    </mxGeometry>
                </mxCell>
                <mxCell id="73U9c0HWaYGPaKn10Cvo-66" value="Accompagna" style="shape=rhombus;perimeter=rhombusPerimeter;whiteSpace=wrap;html=1;align=center;" parent="1" vertex="1">
                    <mxGeometry x="800" y="920" width="120" height="60" as="geometry"/>
                </mxCell>
                <mxCell id="73U9c0HWaYGPaKn10Cvo-68" value="" style="ellipse;whiteSpace=wrap;html=1;aspect=fixed;" parent="1" vertex="1">
                    <mxGeometry x="805" y="1160" width="10" height="10" as="geometry"/>
                </mxCell>
                <mxCell id="73U9c0HWaYGPaKn10Cvo-70" value="" style="endArrow=none;html=1;rounded=0;exitX=0.5;exitY=0;exitDx=0;exitDy=0;" parent="1" source="73U9c0HWaYGPaKn10Cvo-66" edge="1">
                    <mxGeometry width="50" height="50" relative="1" as="geometry">
                        <mxPoint x="810" y="870" as="sourcePoint"/>
                        <mxPoint x="860" y="820" as="targetPoint"/>
                    </mxGeometry>
                </mxCell>
                <mxCell id="73U9c0HWaYGPaKn10Cvo-72" value="" style="endArrow=none;html=1;rounded=0;entryX=0.5;entryY=1;entryDx=0;entryDy=0;" parent="1" target="73U9c0HWaYGPaKn10Cvo-66" edge="1">
                    <mxGeometry width="50" height="50" relative="1" as="geometry">
                        <mxPoint x="860" y="1080" as="sourcePoint"/>
                        <mxPoint x="910" y="1030" as="targetPoint"/>
                    </mxGeometry>
                </mxCell>
                <mxCell id="73U9c0HWaYGPaKn10Cvo-73" value="" style="endArrow=none;html=1;exitX=1;exitY=0.5;exitDx=0;exitDy=0;" parent="1" source="GProfhIi8R3kbPbWlugL-22" target="Gjo6DUxktxaH3FMSYRhE-14" edge="1">
                    <mxGeometry width="50" height="50" relative="1" as="geometry">
                        <mxPoint x="161" y="470" as="sourcePoint"/>
                        <mxPoint x="315" y="470" as="targetPoint"/>
                    </mxGeometry>
                </mxCell>
                <mxCell id="Gjo6DUxktxaH3FMSYRhE-14" value="Attrezzatura medica" style="rounded=0;whiteSpace=wrap;html=1;" parent="1" vertex="1">
                    <mxGeometry x="201" y="440" width="120" height="60" as="geometry"/>
                </mxCell>
                <mxCell id="73U9c0HWaYGPaKn10Cvo-76" value="" style="endArrow=none;html=1;rounded=0;entryX=0.5;entryY=1;entryDx=0;entryDy=0;exitX=0.5;exitY=0;exitDx=0;exitDy=0;" parent="1" source="GProfhIi8R3kbPbWlugL-12" target="Gjo6DUxktxaH3FMSYRhE-8" edge="1">
                    <mxGeometry width="50" height="50" relative="1" as="geometry">
                        <mxPoint x="500" y="440" as="sourcePoint"/>
                        <mxPoint x="550" y="390" as="targetPoint"/>
                    </mxGeometry>
                </mxCell>
                <mxCell id="73U9c0HWaYGPaKn10Cvo-77" value="" style="endArrow=none;html=1;rounded=0;exitX=0.5;exitY=0;exitDx=0;exitDy=0;entryX=0.5;entryY=1;entryDx=0;entryDy=0;" parent="1" source="Gjo6DUxktxaH3FMSYRhE-1" target="GProfhIi8R3kbPbWlugL-22" edge="1">
                    <mxGeometry width="50" height="50" relative="1" as="geometry">
                        <mxPoint x="50" y="550" as="sourcePoint"/>
                        <mxPoint x="100" y="500" as="targetPoint"/>
                    </mxGeometry>
                </mxCell>
                <mxCell id="73U9c0HWaYGPaKn10Cvo-78" value="" style="endArrow=none;html=1;rounded=0;" parent="1" edge="1">
                    <mxGeometry width="50" height="50" relative="1" as="geometry">
                        <mxPoint x="-80" y="630" as="sourcePoint"/>
                        <mxPoint x="-80" y="330" as="targetPoint"/>
                    </mxGeometry>
                </mxCell>
                <mxCell id="73U9c0HWaYGPaKn10Cvo-79" value="" style="endArrow=none;html=1;rounded=0;" parent="1" edge="1">
                    <mxGeometry width="50" height="50" relative="1" as="geometry">
                        <mxPoint x="-80" y="630" as="sourcePoint"/>
                        <mxPoint x="40" y="630" as="targetPoint"/>
                    </mxGeometry>
                </mxCell>
                <mxCell id="73U9c0HWaYGPaKn10Cvo-80" value="" style="endArrow=none;html=1;rounded=0;" parent="1" edge="1">
                    <mxGeometry width="50" height="50" relative="1" as="geometry">
                        <mxPoint x="70" y="680" as="sourcePoint"/>
                        <mxPoint x="70" y="660" as="targetPoint"/>
                    </mxGeometry>
                </mxCell>
                <mxCell id="73U9c0HWaYGPaKn10Cvo-81" value="" style="endArrow=none;html=1;rounded=0;" parent="1" edge="1">
                    <mxGeometry width="50" height="50" relative="1" as="geometry">
                        <mxPoint x="130" y="680" as="sourcePoint"/>
                        <mxPoint x="130" y="660" as="targetPoint"/>
                    </mxGeometry>
                </mxCell>
                <mxCell id="73U9c0HWaYGPaKn10Cvo-82" value="" style="endArrow=none;html=1;rounded=0;exitX=0.5;exitY=0;exitDx=0;exitDy=0;" parent="1" source="GProfhIi8R3kbPbWlugL-13" edge="1">
                    <mxGeometry width="50" height="50" relative="1" as="geometry">
                        <mxPoint x="50" y="710" as="sourcePoint"/>
                        <mxPoint x="100" y="660" as="targetPoint"/>
                    </mxGeometry>
                </mxCell>
                <mxCell id="73U9c0HWaYGPaKn10Cvo-83" value="" style="endArrow=none;html=1;rounded=0;entryX=0;entryY=0.5;entryDx=0;entryDy=0;" parent="1" target="GProfhIi8R3kbPbWlugL-19" edge="1">
                    <mxGeometry width="50" height="50" relative="1" as="geometry">
                        <mxPoint x="160" y="630" as="sourcePoint"/>
                        <mxPoint x="210" y="580" as="targetPoint"/>
                    </mxGeometry>
                </mxCell>
                <mxCell id="73U9c0HWaYGPaKn10Cvo-84" value="" style="endArrow=none;html=1;rounded=0;" parent="1" edge="1">
                    <mxGeometry width="50" height="50" relative="1" as="geometry">
                        <mxPoint x="760" y="770" as="sourcePoint"/>
                        <mxPoint x="800" y="770" as="targetPoint"/>
                    </mxGeometry>
                </mxCell>
                <mxCell id="73U9c0HWaYGPaKn10Cvo-85" value="" style="endArrow=none;html=1;rounded=0;" parent="1" edge="1">
                    <mxGeometry width="50" height="50" relative="1" as="geometry">
                        <mxPoint x="770" y="790" as="sourcePoint"/>
                        <mxPoint x="800" y="790" as="targetPoint"/>
                    </mxGeometry>
                </mxCell>
                <mxCell id="73U9c0HWaYGPaKn10Cvo-86" value="" style="endArrow=none;html=1;rounded=0;" parent="1" edge="1">
                    <mxGeometry width="50" height="50" relative="1" as="geometry">
                        <mxPoint x="780" y="810" as="sourcePoint"/>
                        <mxPoint x="800" y="810" as="targetPoint"/>
                    </mxGeometry>
                </mxCell>
                <mxCell id="73U9c0HWaYGPaKn10Cvo-87" value="" style="endArrow=none;html=1;rounded=0;" parent="1" edge="1">
                    <mxGeometry width="50" height="50" relative="1" as="geometry">
                        <mxPoint x="670" y="840" as="sourcePoint"/>
                        <mxPoint x="770" y="790" as="targetPoint"/>
                    </mxGeometry>
                </mxCell>
                <mxCell id="73U9c0HWaYGPaKn10Cvo-88" value="Registro&lt;div&gt;Operazioni&lt;/div&gt;" style="rounded=0;whiteSpace=wrap;html=1;" parent="1" vertex="1">
                    <mxGeometry x="401" y="1080" width="120" height="60" as="geometry"/>
                </mxCell>
                <mxCell id="73U9c0HWaYGPaKn10Cvo-89" value="si sottopongono" style="shape=rhombus;perimeter=rhombusPerimeter;whiteSpace=wrap;html=1;align=center;" parent="1" vertex="1">
                    <mxGeometry x="600" y="1080" width="120" height="60" as="geometry"/>
                </mxCell>
                <mxCell id="73U9c0HWaYGPaKn10Cvo-90" value="" style="endArrow=none;html=1;rounded=0;" parent="1" edge="1">
                    <mxGeometry width="50" height="50" relative="1" as="geometry">
                        <mxPoint x="660" y="980" as="sourcePoint"/>
                        <mxPoint x="700" y="960" as="targetPoint"/>
                    </mxGeometry>
                </mxCell>
                <mxCell id="73U9c0HWaYGPaKn10Cvo-91" value="" style="endArrow=none;html=1;rounded=0;exitX=0.5;exitY=0;exitDx=0;exitDy=0;" parent="1" source="73U9c0HWaYGPaKn10Cvo-89" edge="1">
                    <mxGeometry width="50" height="50" relative="1" as="geometry">
                        <mxPoint x="660" y="1076" as="sourcePoint"/>
                        <mxPoint x="660" y="980" as="targetPoint"/>
                    </mxGeometry>
                </mxCell>
                <mxCell id="73U9c0HWaYGPaKn10Cvo-93" value="" style="endArrow=none;html=1;rounded=0;entryX=0;entryY=0.5;entryDx=0;entryDy=0;" parent="1" target="73U9c0HWaYGPaKn10Cvo-88" edge="1">
                    <mxGeometry width="50" height="50" relative="1" as="geometry">
                        <mxPoint x="320" y="1110" as="sourcePoint"/>
                        <mxPoint x="370" y="1060" as="targetPoint"/>
                    </mxGeometry>
                </mxCell>
                <mxCell id="73U9c0HWaYGPaKn10Cvo-94" value="" style="endArrow=none;html=1;rounded=0;entryX=0;entryY=0.5;entryDx=0;entryDy=0;exitX=1;exitY=0.5;exitDx=0;exitDy=0;" parent="1" source="73U9c0HWaYGPaKn10Cvo-88" target="73U9c0HWaYGPaKn10Cvo-89" edge="1">
                    <mxGeometry width="50" height="50" relative="1" as="geometry">
                        <mxPoint x="520" y="1110" as="sourcePoint"/>
                        <mxPoint x="570" y="1060" as="targetPoint"/>
                    </mxGeometry>
                </mxCell>
                <mxCell id="73U9c0HWaYGPaKn10Cvo-95" value="id_operazione" style="text;html=1;align=center;verticalAlign=middle;resizable=0;points=[];autosize=1;strokeColor=none;fillColor=none;" parent="1" vertex="1">
                    <mxGeometry x="355" y="1029" width="100" height="30" as="geometry"/>
                </mxCell>
                <mxCell id="73U9c0HWaYGPaKn10Cvo-96" value="id_paziente" style="text;html=1;align=center;verticalAlign=middle;resizable=0;points=[];autosize=1;strokeColor=none;fillColor=none;" parent="1" vertex="1">
                    <mxGeometry x="481" y="1029" width="80" height="30" as="geometry"/>
                </mxCell>
                <mxCell id="73U9c0HWaYGPaKn10Cvo-99" value="" style="endArrow=none;html=1;rounded=0;" parent="1" edge="1">
                    <mxGeometry width="50" height="50" relative="1" as="geometry">
                        <mxPoint x="440" y="1080" as="sourcePoint"/>
                        <mxPoint x="440" y="1060" as="targetPoint"/>
                    </mxGeometry>
                </mxCell>
                <mxCell id="73U9c0HWaYGPaKn10Cvo-100" value="" style="endArrow=none;html=1;rounded=0;" parent="1" edge="1" target="64">
                    <mxGeometry width="50" height="50" relative="1" as="geometry">
                        <mxPoint x="480.69" y="1080" as="sourcePoint"/>
                        <mxPoint x="480.69" y="1060" as="targetPoint"/>
                    </mxGeometry>
                </mxCell>
                <mxCell id="73U9c0HWaYGPaKn10Cvo-102" value="capo&amp;nbsp;&lt;div&gt;reparto&lt;/div&gt;" style="text;html=1;align=center;verticalAlign=middle;resizable=0;points=[];autosize=1;strokeColor=none;fillColor=none;" parent="1" vertex="1">
                    <mxGeometry x="499" y="367" width="60" height="40" as="geometry"/>
                </mxCell>
                <mxCell id="73U9c0HWaYGPaKn10Cvo-103" value="" style="ellipse;whiteSpace=wrap;html=1;aspect=fixed;" parent="1" vertex="1">
                    <mxGeometry x="499" y="380" width="10" height="10" as="geometry"/>
                </mxCell>
                <mxCell id="73U9c0HWaYGPaKn10Cvo-105" value="" style="endArrow=none;html=1;rounded=0;" parent="1" edge="1">
                    <mxGeometry width="50" height="50" relative="1" as="geometry">
                        <mxPoint x="504" y="380" as="sourcePoint"/>
                        <mxPoint x="503.82" y="360" as="targetPoint"/>
                    </mxGeometry>
                </mxCell>
                <mxCell id="39" value="" style="endArrow=none;html=1;" edge="1" parent="1">
                    <mxGeometry width="50" height="50" relative="1" as="geometry">
                        <mxPoint x="70" y="1000" as="sourcePoint"/>
                        <mxPoint x="70" y="980" as="targetPoint"/>
                    </mxGeometry>
                </mxCell>
                <mxCell id="40" value="" style="endArrow=none;html=1;" edge="1" parent="1">
                    <mxGeometry width="50" height="50" relative="1" as="geometry">
                        <mxPoint x="160" y="950.82" as="sourcePoint"/>
                        <mxPoint x="180.5" y="950.82" as="targetPoint"/>
                    </mxGeometry>
                </mxCell>
                <mxCell id="41" value="" style="endArrow=none;html=1;" edge="1" parent="1">
                    <mxGeometry width="50" height="50" relative="1" as="geometry">
                        <mxPoint x="180" y="1110" as="sourcePoint"/>
                        <mxPoint x="180" y="950" as="targetPoint"/>
                    </mxGeometry>
                </mxCell>
                <mxCell id="42" value="" style="endArrow=none;html=1;entryX=0;entryY=0.5;entryDx=0;entryDy=0;" edge="1" parent="1" target="GProfhIi8R3kbPbWlugL-62">
                    <mxGeometry width="50" height="50" relative="1" as="geometry">
                        <mxPoint x="180" y="1110" as="sourcePoint"/>
                        <mxPoint x="120" y="1130" as="targetPoint"/>
                    </mxGeometry>
                </mxCell>
                <mxCell id="43" value="" style="endArrow=none;html=1;exitX=0.5;exitY=0;exitDx=0;exitDy=0;entryX=0.5;entryY=1;entryDx=0;entryDy=0;" edge="1" parent="1" source="Gjo6DUxktxaH3FMSYRhE-11" target="GProfhIi8R3kbPbWlugL-16">
                    <mxGeometry width="50" height="50" relative="1" as="geometry">
                        <mxPoint x="-10" y="1250" as="sourcePoint"/>
                        <mxPoint x="40" y="1200" as="targetPoint"/>
                    </mxGeometry>
                </mxCell>
                <mxCell id="44" value="" style="endArrow=none;html=1;exitX=1;exitY=0.5;exitDx=0;exitDy=0;" edge="1" parent="1" source="Gjo6DUxktxaH3FMSYRhE-11">
                    <mxGeometry width="50" height="50" relative="1" as="geometry">
                        <mxPoint x="160" y="1290" as="sourcePoint"/>
                        <mxPoint x="190" y="1227" as="targetPoint"/>
                    </mxGeometry>
                </mxCell>
                <mxCell id="45" value="" style="ellipse;whiteSpace=wrap;html=1;aspect=fixed;" vertex="1" parent="1">
                    <mxGeometry x="186" y="1222.33" width="10" height="10" as="geometry"/>
                </mxCell>
                <mxCell id="46" value="id operazione" style="text;html=1;align=center;verticalAlign=middle;resizable=0;points=[];autosize=1;strokeColor=none;fillColor=none;" vertex="1" parent="1">
                    <mxGeometry x="161" y="1227.33" width="100" height="30" as="geometry"/>
                </mxCell>
                <mxCell id="47" value="" style="shape=waypoint;sketch=0;fillStyle=solid;size=6;pointerEvents=1;points=[];fillColor=none;resizable=0;rotatable=0;perimeter=centerPerimeter;snapToPoint=1;" vertex="1" parent="1">
                    <mxGeometry x="11" y="643" width="20" height="20" as="geometry"/>
                </mxCell>
                <mxCell id="48" value="" style="shape=waypoint;sketch=0;fillStyle=solid;size=6;pointerEvents=1;points=[];fillColor=none;resizable=0;rotatable=0;perimeter=centerPerimeter;snapToPoint=1;" vertex="1" parent="1">
                    <mxGeometry x="310" y="410" width="20" height="20" as="geometry"/>
                </mxCell>
                <mxCell id="49" value="" style="shape=waypoint;sketch=0;fillStyle=solid;size=6;pointerEvents=1;points=[];fillColor=none;resizable=0;rotatable=0;perimeter=centerPerimeter;snapToPoint=1;" vertex="1" parent="1">
                    <mxGeometry x="494" y="270" width="20" height="20" as="geometry"/>
                </mxCell>
                <mxCell id="50" value="" style="shape=waypoint;sketch=0;fillStyle=solid;size=6;pointerEvents=1;points=[];fillColor=none;resizable=0;rotatable=0;perimeter=centerPerimeter;snapToPoint=1;" vertex="1" parent="1">
                    <mxGeometry x="-65" y="881" width="20" height="20" as="geometry"/>
                </mxCell>
                <mxCell id="51" value="" style="shape=waypoint;sketch=0;fillStyle=solid;size=6;pointerEvents=1;points=[];fillColor=none;resizable=0;rotatable=0;perimeter=centerPerimeter;snapToPoint=1;" vertex="1" parent="1">
                    <mxGeometry x="60" y="990" width="20" height="20" as="geometry"/>
                </mxCell>
                <mxCell id="53" value="" style="shape=waypoint;sketch=0;fillStyle=solid;size=6;pointerEvents=1;points=[];fillColor=none;resizable=0;rotatable=0;perimeter=centerPerimeter;snapToPoint=1;" vertex="1" parent="1">
                    <mxGeometry x="135" y="1166" width="20" height="20" as="geometry"/>
                </mxCell>
                <mxCell id="55" value="" style="endArrow=none;html=1;" edge="1" parent="1" target="56">
                    <mxGeometry width="50" height="50" relative="1" as="geometry">
                        <mxPoint x="310" y="921" as="sourcePoint"/>
                        <mxPoint x="310" y="890" as="targetPoint"/>
                    </mxGeometry>
                </mxCell>
                <mxCell id="56" value="" style="shape=waypoint;sketch=0;fillStyle=solid;size=6;pointerEvents=1;points=[];fillColor=none;resizable=0;rotatable=0;perimeter=centerPerimeter;snapToPoint=1;" vertex="1" parent="1">
                    <mxGeometry x="300" y="880" width="20" height="20" as="geometry"/>
                </mxCell>
                <mxCell id="58" value="" style="endArrow=none;html=1;startArrow=none;" edge="1" parent="1" source="59">
                    <mxGeometry width="50" height="50" relative="1" as="geometry">
                        <mxPoint x="320" y="940" as="sourcePoint"/>
                        <mxPoint x="340" y="920" as="targetPoint"/>
                    </mxGeometry>
                </mxCell>
                <mxCell id="60" value="" style="endArrow=none;html=1;" edge="1" parent="1" target="59">
                    <mxGeometry width="50" height="50" relative="1" as="geometry">
                        <mxPoint x="320" y="940" as="sourcePoint"/>
                        <mxPoint x="340" y="920" as="targetPoint"/>
                    </mxGeometry>
                </mxCell>
                <mxCell id="59" value="" style="ellipse;whiteSpace=wrap;html=1;aspect=fixed;" vertex="1" parent="1">
                    <mxGeometry x="335" y="915" width="10" height="10" as="geometry"/>
                </mxCell>
                <mxCell id="61" value="ora visita" style="text;html=1;align=center;verticalAlign=middle;resizable=0;points=[];autosize=1;strokeColor=none;fillColor=none;" vertex="1" parent="1">
                    <mxGeometry x="325" y="887" width="70" height="30" as="geometry"/>
                </mxCell>
                <mxCell id="63" value="" style="shape=waypoint;sketch=0;fillStyle=solid;size=6;pointerEvents=1;points=[];fillColor=none;resizable=0;rotatable=0;perimeter=centerPerimeter;snapToPoint=1;" vertex="1" parent="1">
                    <mxGeometry x="431" y="1050" width="20" height="20" as="geometry"/>
                </mxCell>
                <mxCell id="64" value="" style="shape=waypoint;sketch=0;fillStyle=solid;size=6;pointerEvents=1;points=[];fillColor=none;resizable=0;rotatable=0;perimeter=centerPerimeter;snapToPoint=1;" vertex="1" parent="1">
                    <mxGeometry x="470.69000000000005" y="1050" width="20" height="20" as="geometry"/>
                </mxCell>
                <mxCell id="66" value="" style="shape=waypoint;sketch=0;fillStyle=solid;size=6;pointerEvents=1;points=[];fillColor=none;resizable=0;rotatable=0;perimeter=centerPerimeter;snapToPoint=1;" vertex="1" parent="1">
                    <mxGeometry x="763" y="1106" width="20" height="20" as="geometry"/>
                </mxCell>
                <mxCell id="69" value="" style="shape=waypoint;sketch=0;fillStyle=solid;size=6;pointerEvents=1;points=[];fillColor=none;resizable=0;rotatable=0;perimeter=centerPerimeter;snapToPoint=1;" vertex="1" parent="1">
                    <mxGeometry x="865" y="730" width="20" height="20" as="geometry"/>
                </mxCell>
                <mxCell id="70" value="" style="shape=waypoint;sketch=0;fillStyle=solid;size=6;pointerEvents=1;points=[];fillColor=none;resizable=0;rotatable=0;perimeter=centerPerimeter;snapToPoint=1;" vertex="1" parent="1">
                    <mxGeometry x="1095" y="559.9999999999999" width="20" height="20" as="geometry"/>
                </mxCell>
                <mxCell id="71" value="" style="endArrow=none;html=1;" edge="1" parent="1">
                    <mxGeometry width="50" height="50" relative="1" as="geometry">
                        <mxPoint x="1030" y="680" as="sourcePoint"/>
                        <mxPoint x="1030" y="660" as="targetPoint"/>
                    </mxGeometry>
                </mxCell>
                <mxCell id="72" value="" style="ellipse;whiteSpace=wrap;html=1;aspect=fixed;" vertex="1" parent="1">
                    <mxGeometry x="1400" y="810" width="10" height="10" as="geometry"/>
                </mxCell>
                <mxCell id="74" value="" style="ellipse;whiteSpace=wrap;html=1;aspect=fixed;" vertex="1" parent="1">
                    <mxGeometry x="1026" y="680" width="10" height="10" as="geometry"/>
                </mxCell>
                <mxCell id="75" value="reparto" style="text;html=1;align=center;verticalAlign=middle;resizable=0;points=[];autosize=1;strokeColor=none;fillColor=none;" vertex="1" parent="1">
                    <mxGeometry x="995" y="685" width="60" height="30" as="geometry"/>
                </mxCell>
                <mxCell id="76" value="" style="shape=waypoint;sketch=0;fillStyle=solid;size=6;pointerEvents=1;points=[];fillColor=none;resizable=0;rotatable=0;perimeter=centerPerimeter;snapToPoint=1;" vertex="1" parent="1">
                    <mxGeometry x="775" y="408" width="20" height="20" as="geometry"/>
                </mxCell>
                <mxCell id="77" value="" style="shape=waypoint;sketch=0;fillStyle=solid;size=6;pointerEvents=1;points=[];fillColor=none;resizable=0;rotatable=0;perimeter=centerPerimeter;snapToPoint=1;" vertex="1" parent="1">
                    <mxGeometry x="570" y="585" width="20" height="20" as="geometry"/>
                </mxCell>
            </root>
        </mxGraphModel>
    </diagram>
</mxfile>